<svg width="115" height="104" viewBox="0 0 115 104" fill="none" xmlns="http://www.w3.org/2000/svg">
<g filter="url(#filter0_d_1_1113)">
<path d="M65.8396 47.8721C65.8396 52.6504 61.9736 56.5164 57.1953 56.5164C52.417 56.5164 48.551 52.6504 48.551 47.8721C48.551 43.0938 52.417 39.2278 57.1953 39.2278C61.9736 39.2278 65.8396 43.0938 65.8396 47.8721Z" fill="#281159"/>
<path d="M57.1955 57.1806C52.0634 57.1806 47.8863 53.0047 47.8863 47.8714C47.8863 42.738 52.0634 38.5621 57.1955 38.5621C62.3275 38.5621 66.5047 42.738 66.5047 47.8714C66.5047 53.0047 62.3275 57.1806 57.1955 57.1806ZM57.1955 39.892C52.7949 39.892 49.2162 43.4708 49.2162 47.8714C49.2162 52.272 52.7949 55.8507 57.1955 55.8507C61.5961 55.8507 65.1748 52.272 65.1748 47.8714C65.1748 43.4708 61.5961 39.892 57.1955 39.892Z" fill="#281159"/>
<path d="M36.5476 95.0863C34.2722 95.0863 32.2002 94.565 30.3876 93.5383C27.3554 91.8188 25.2595 88.8558 24.1557 84.7345C22.8724 79.9376 23.0253 73.566 24.5972 66.2782C11.9207 61.9175 4.66484 55.2269 4.66484 47.8712C4.66484 40.5143 11.9194 33.8249 24.5959 29.4655C23.024 22.1764 22.8697 15.8049 24.1531 11.008C25.2569 6.88534 27.3528 3.92234 30.3836 2.20412C32.1949 1.17744 34.2682 0.656128 36.5437 0.656128C42.3792 0.656128 49.6976 4.28673 57.1982 10.8936C64.6988 4.29338 72.0145 0.665437 77.8434 0.665437C80.1189 0.665437 82.1908 1.18675 84.0035 2.21343C87.0316 3.93032 89.1289 6.888 90.2327 11.0053C91.5173 15.8009 91.3631 22.1738 89.7898 29.4642C102.469 33.8236 109.726 40.5143 109.726 47.8712C109.726 55.2282 102.469 61.9189 89.7898 66.2796C91.3617 73.5687 91.516 79.9402 90.2313 84.7358C89.1275 88.8545 87.033 91.8121 84.0075 93.529C82.1935 94.5557 80.1202 95.077 77.8461 95.077C72.0132 95.077 64.6948 91.4491 57.1969 84.8515C49.6963 91.4571 42.3792 95.0863 36.5476 95.0863ZM29.716 67.8276C28.3981 74.1007 28.2505 79.4601 29.2957 83.3594C30.0165 86.0537 31.2653 87.9222 33.0115 88.9117C34.0129 89.4795 35.2031 89.7681 36.5476 89.7681C41.0613 89.7681 47.0032 86.7333 53.3322 81.2076C50.1604 78.0132 47.0644 74.3972 44.1187 70.4475C39.0239 69.8942 34.1831 69.0138 29.716 67.8276ZM61.0602 81.2049C67.3878 86.7253 73.3311 89.7575 77.8447 89.7588C79.1893 89.7588 80.3795 89.4702 81.3836 88.9023C83.1244 87.9156 84.3705 86.0511 85.09 83.3607C86.1353 79.4588 85.989 74.1007 84.6711 67.8289C80.2 69.0152 75.3578 69.8956 70.2644 70.4488C67.32 74.3986 64.228 78.0132 61.0602 81.2049ZM51.2988 71.002C53.2298 73.3639 55.206 75.5675 57.1955 77.5717C59.1797 75.5689 61.1573 73.3652 63.0869 71.002C61.1041 71.0964 59.1292 71.1443 57.1955 71.1443C55.2605 71.1443 53.2843 71.0964 51.2988 71.002ZM47.0205 65.3979C50.3386 65.6811 53.7604 65.8248 57.1955 65.8248C60.6333 65.8248 64.0511 65.6811 67.3639 65.3992C69.3401 62.6277 71.2245 59.7232 72.968 56.7616C74.6543 53.8956 76.2409 50.9047 77.6852 47.8699C76.2449 44.8431 74.6597 41.8535 72.9694 38.9809C71.2299 36.0259 69.3454 33.1214 67.3639 30.3433C64.0538 30.0613 60.636 29.9177 57.1955 29.9177C53.7538 29.9177 50.3346 30.0613 47.0259 30.3446C45.0443 33.1188 43.1572 36.0232 41.415 38.9822C39.7261 41.8535 38.1409 44.8431 36.6992 47.8739C38.1382 50.8981 39.7234 53.8877 41.4137 56.7629C43.1479 59.7086 45.0323 62.6117 47.0205 65.3979ZM80.4566 54.2268C79.5177 56.0168 78.5443 57.7723 77.5508 59.4586C76.5494 61.1635 75.4842 62.8737 74.3777 64.56C77.5349 64.0733 80.5551 63.4496 83.3824 62.6982C82.5978 59.9732 81.615 57.1313 80.4566 54.2268ZM31.002 62.6968C33.8307 63.4469 36.8495 64.072 40.0027 64.5587C38.8896 62.8618 37.8243 61.1502 36.8296 59.4586C35.8388 57.7736 34.864 56.0208 33.9264 54.2308C32.7734 57.122 31.792 59.9613 31.002 62.6968ZM83.5486 47.8712C85.5807 52.3809 87.2364 56.8387 88.4799 61.1396C98.3237 57.6765 104.407 52.6243 104.407 47.8712C104.407 43.1182 98.3237 38.066 88.4799 34.6029C87.2391 38.9038 85.582 43.3616 83.5486 47.8712ZM25.9059 34.6056C16.066 38.0673 9.9844 43.1195 9.9844 47.8712C9.9844 52.6243 16.066 57.6765 25.9085 61.1382C27.1506 56.836 28.8063 52.3782 30.8358 47.8739C28.805 43.3682 27.1493 38.9104 25.9059 34.6056ZM31.0007 33.0456C31.7906 35.7772 32.7721 38.6179 33.9264 41.5144C34.8627 39.7296 35.8361 37.9755 36.8309 36.2852C37.831 34.5843 38.8962 32.8741 40.0067 31.1838C36.8495 31.6692 33.8307 32.2942 31.0007 33.0456ZM74.3804 31.1824C75.4935 32.8807 76.5587 34.5909 77.5535 36.2852C78.5456 37.9702 79.5204 39.7243 80.4593 41.5144C81.615 38.6192 82.5964 35.7785 83.3864 33.0443C80.5537 32.2929 77.5349 31.6678 74.3804 31.1824ZM36.5437 5.97569C35.1991 5.97569 34.0102 6.26295 33.0101 6.83214C31.2653 7.82158 30.0152 9.69007 29.2931 12.3844C28.2491 16.2877 28.3954 21.6458 29.7147 27.9162C34.1831 26.73 39.0266 25.8482 44.1227 25.295C47.0711 21.3439 50.1671 17.7306 53.3349 14.5389C47.0046 9.0105 41.0586 5.97569 36.5437 5.97569ZM70.2657 25.2937C75.3592 25.8469 80.2013 26.7273 84.6724 27.9136C85.9916 21.6418 86.1393 16.2823 85.0926 12.3804C84.3718 9.6914 83.1244 7.8269 81.3822 6.84012C80.3795 6.27226 79.1893 5.98367 77.8434 5.98367C73.3311 5.98367 67.3905 9.01715 61.0615 14.5389C64.2267 17.7293 67.32 21.3439 70.2657 25.2937ZM57.1955 24.5981C59.1292 24.5981 61.1041 24.646 63.0883 24.7404C61.1599 22.3812 59.1837 20.1789 57.1982 18.1734C55.2073 20.1816 53.2324 22.3839 51.3041 24.7404C53.287 24.646 55.2619 24.5981 57.1955 24.5981Z" fill="#281159"/>
<path d="M36.5438 1.32191C42.5203 1.32191 49.8373 5.19189 57.1996 11.7842C64.5606 5.19721 71.8736 1.33122 77.8448 1.33122C80.0033 1.33122 81.9662 1.82328 83.6777 2.79277C86.545 4.4179 88.5345 7.23859 89.5904 11.1791C91.0227 16.3882 90.7222 22.8023 89.0133 29.9039C101.278 34.0013 109.061 40.4659 109.061 47.8721C109.061 55.2782 101.278 61.7428 89.0119 65.8416C90.7953 73.519 91.0945 80.106 89.5891 84.5651C88.5332 88.5042 86.545 91.3263 83.6804 92.9514C81.9662 93.9222 80.4089 94.4182 78.2518 94.4182C78.2505 94.4182 77.6985 94.4182 77.6972 94.4182C71.7234 94.4182 64.5552 90.5483 57.1956 83.964C49.8347 90.5549 42.5203 94.4222 36.5464 94.4222C34.388 94.4222 32.4251 93.9302 30.7135 92.9607C27.8436 91.3316 25.8528 88.5069 24.7982 84.5638C23.2156 79.6205 23.5348 73.1227 25.3753 65.8402C13.1124 61.7415 5.32989 55.2782 5.32989 47.8721C5.32989 40.4672 13.1124 34.0026 25.374 29.9039C24.4604 25.8358 23.8765 22.0589 23.8566 18.6145C23.8406 15.8935 24.2117 13.3627 24.7968 11.1804C25.8528 7.23593 27.8423 4.41125 30.7122 2.78346C32.4224 1.81264 34.3853 1.32191 36.5438 1.32191ZM29.2121 28.7403C33.8361 27.4702 38.9708 26.51 44.4832 25.9249C47.651 21.6559 50.9664 17.8179 54.3058 14.5091C47.8265 8.7294 41.5175 5.31025 36.5438 5.31025C35.0822 5.31025 33.7842 5.62677 32.6817 6.25315C30.776 7.33435 29.4209 9.33849 28.6509 12.2124C27.5098 16.4707 27.7691 22.2265 29.2121 28.7403ZM85.1752 28.7389C86.6181 22.2251 86.8774 16.468 85.7364 12.2097C84.9677 9.34115 83.6126 7.341 81.7108 6.26245C80.607 5.63608 79.3051 5.31956 77.8448 5.31956C72.875 5.31956 66.57 8.73472 60.0921 14.5091C63.4302 17.8179 66.7416 21.6559 69.9067 25.9236C75.4165 26.5087 80.5512 27.4689 85.1752 28.7389ZM49.8506 25.4847C52.2471 25.3424 54.6502 25.2187 57.1491 25.2187C59.6479 25.2187 62.1428 25.3437 64.5393 25.4847C62.1348 22.4539 59.6666 19.685 57.197 17.2341C54.7273 19.685 52.2577 22.4539 49.8506 25.4847ZM57.1956 66.4905C60.8675 66.4905 64.3824 66.3296 67.7257 66.0357C69.7458 63.2203 71.6994 60.2307 73.54 57.1002C75.3393 54.0428 76.9671 50.9481 78.4207 47.8721C76.9671 44.796 75.3393 41.7027 73.5413 38.6466C71.6994 35.5147 69.7471 32.5265 67.7257 29.7111C64.3837 29.4145 60.8688 29.2536 57.1956 29.2536C53.5225 29.2536 50.0062 29.4145 46.6629 29.7098C44.6401 32.5251 42.6852 35.5147 40.8433 38.6453C39.0453 41.7027 37.4175 44.7974 35.9639 47.8734C37.4175 50.9494 39.0439 54.0428 40.842 57.0989C42.6839 60.2294 44.6375 63.219 46.6589 66.0344C50.0036 66.3296 53.5211 66.4905 57.1956 66.4905ZM80.5299 43.1018C82.026 39.4991 83.2641 35.9616 84.2084 32.5783C80.8131 31.6447 77.0629 30.8734 73 30.3082C74.3672 32.3389 75.6984 34.4442 76.9791 36.6225C78.2478 38.7756 79.4274 40.9407 80.5299 43.1018ZM33.8547 43.1031C34.9559 40.942 36.1368 38.777 37.4029 36.6225C38.6849 34.4442 40.0174 32.3403 41.3859 30.3095C37.3231 30.8734 33.5728 31.6461 30.1776 32.5797C31.1218 35.9629 32.3599 39.4991 33.8547 43.1031ZM88.0331 61.9982C98.7733 58.3596 105.072 53.0134 105.072 47.8721C105.072 42.7307 98.7733 37.3846 88.0331 33.746C86.7657 38.2743 85.0156 43.0326 82.82 47.8707C85.0156 52.7102 86.7657 57.4686 88.0331 61.9982ZM26.3555 61.9968C27.6215 57.4699 29.3703 52.7115 31.566 47.8747C29.3703 43.0366 27.6202 38.2769 26.3541 33.7486C15.6153 37.3872 9.31956 42.732 9.31956 47.8721C9.31956 53.0134 15.6166 58.3583 26.3555 61.9968ZM73 65.4359C77.0629 64.8721 80.8131 64.1007 84.2084 63.1658C83.2628 59.7826 82.0247 56.2451 80.5299 52.6411C79.4274 54.8021 78.2465 56.9672 76.9791 59.1216C75.6984 61.3 74.3672 63.4052 73 65.4359ZM41.3819 65.4346C40.0148 63.4039 38.6835 61.3 37.4015 59.1229C36.1355 56.9699 34.9559 54.8061 33.8547 52.6464C32.3599 56.2477 31.1231 59.7839 30.1789 63.1658C33.5728 64.0981 37.3217 64.8694 41.3819 65.4346ZM36.5477 90.4326C41.5202 90.4326 47.8265 87.0147 54.3044 81.2377C50.9624 77.9276 47.6483 74.0882 44.4792 69.8179C38.9695 69.2341 33.8374 68.2739 29.2147 67.0039C27.7731 73.5177 27.5138 79.2735 28.6535 83.5318C29.4222 86.4043 30.7787 88.4085 32.6831 89.4897C33.7842 90.1161 35.0862 90.4326 36.5477 90.4326ZM77.8448 90.4246C79.3064 90.4246 80.6057 90.1081 81.7108 89.4817C83.6126 88.4032 84.9651 86.403 85.7324 83.5331C86.8735 79.2735 86.6141 73.5177 85.1725 67.0052C80.5485 68.2753 75.4151 69.2354 69.9041 69.8193C66.7389 74.0882 63.4262 77.9263 60.0881 81.2364C66.566 87.0081 72.8724 90.4233 77.8448 90.4246ZM57.1956 78.5128C59.6652 76.0604 62.1335 73.2903 64.5393 70.2595C62.1441 70.4017 59.8062 70.7023 57.306 70.7023C54.8045 70.7023 52.2431 70.4017 49.8466 70.2595C52.2537 73.2916 54.7247 76.0618 57.1956 78.5128ZM36.0716 0.0917628C33.6792 0.0917628 31.9689 0.541266 30.0565 1.62513C26.8661 3.43511 24.6638 6.53375 23.5122 10.8359C22.2355 15.6063 22.3458 21.8767 23.826 29.0302C11.2067 33.4946 4 40.3249 4 47.8721C4 55.4205 11.208 62.2495 23.8273 66.714C22.3472 73.8674 22.2368 80.1379 23.5148 84.9082C24.6652 89.2077 26.8661 92.3064 30.0592 94.119C31.9742 95.2042 34.275 95.6657 36.6661 95.6657C42.6333 95.6657 49.6365 92.2944 57.197 85.7367C64.7561 92.2878 71.8776 95.7428 77.8435 95.7441C80.236 95.7441 82.4197 95.1949 84.3347 94.1097C87.5225 92.3024 89.7221 89.2077 90.8724 84.9109C92.1505 80.1392 92.0401 73.8688 90.5599 66.7166C103.182 62.2509 110.391 55.4205 110.391 47.8721C110.391 40.3236 103.183 33.4933 90.5612 29.0289C92.0427 21.874 92.1518 15.6036 90.8738 10.8333C89.7221 6.53641 87.5211 3.44176 84.332 1.63444C82.4183 0.550575 80.2346 0 77.8435 0C71.8789 0 64.7587 3.45639 57.1983 10.0101C49.6365 3.45107 42.4817 0.0877728 36.5132 0.0877728L36.0716 0.0917628ZM30.2254 27.0952C29.611 24.0045 29.1988 21.108 29.1762 18.5679C29.1562 16.2805 29.4701 14.2897 29.9342 12.5555C30.6084 10.0393 31.7535 8.30783 33.3374 7.40882C34.2364 6.89814 35.3322 6.55237 36.5597 6.55237C40.7901 6.55237 46.357 9.44887 52.3628 14.5769C49.4091 17.5998 46.5219 20.9857 43.7637 24.6642C38.9961 25.1961 34.4505 26.0113 30.2254 27.0952ZM62.0338 14.5796C68.0382 9.45552 73.6184 6.64945 77.8435 6.64945C79.0723 6.64945 80.1535 6.90878 81.0539 7.41946C82.6351 8.31581 83.7788 10.0433 84.4517 12.5542C85.6141 16.3018 85.4638 21.2836 84.1618 27.0939C79.9368 26.0113 75.3925 25.1948 70.6262 24.6655C67.8693 20.9883 64.9848 17.6024 62.0338 14.5796ZM52.7711 24.0138C54.2286 22.285 55.7088 20.6492 57.197 19.1225C58.6851 20.6492 60.1639 22.285 61.6202 24.0138C60.132 23.9606 58.6519 23.934 57.1956 23.934C55.7394 23.934 54.2606 23.9606 52.7711 24.0138ZM47.3877 30.9825C50.5861 30.7178 53.8815 30.529 57.1956 30.529C60.5084 30.529 63.8039 30.7178 67.0009 30.9825C68.9053 33.6675 70.7193 36.4696 72.3949 39.3195C74.0201 42.0831 75.5508 44.957 76.9472 47.8707C75.5494 50.7859 74.0187 53.6611 72.3936 56.4246C70.7166 59.2759 68.904 62.0766 66.9996 64.7617C63.8039 65.0263 60.5084 65.3814 57.1956 65.3814C53.8802 65.3814 50.5834 65.025 47.3837 64.7604C45.478 62.0766 43.664 59.2746 41.987 56.4233C40.3619 53.6611 38.8325 50.7872 37.4361 47.8721C38.8325 44.957 40.3632 42.0817 41.9883 39.3182C43.6666 36.4683 45.4819 33.6662 47.3877 30.9825ZM80.365 39.9246C79.6349 38.5708 78.8861 37.2409 78.1268 35.9483C77.3687 34.6596 76.5748 33.3656 75.7529 32.0796C78.1121 32.4812 80.3876 32.9613 82.554 33.5159C81.9329 35.5985 81.2001 37.7423 80.365 39.9246ZM31.8319 33.5159C33.9983 32.9613 36.2738 32.4812 38.633 32.0796C37.8098 33.3656 37.0159 34.6596 36.2578 35.9469C35.4985 37.2396 34.7497 38.5695 34.0196 39.9233C33.1845 37.7436 32.453 35.5998 31.8319 33.5159ZM84.2788 47.8707C86.1606 43.6656 87.7193 39.5031 88.9202 35.4682C98.1004 38.8182 103.742 43.5114 103.742 47.8721C103.742 52.2328 98.1004 56.926 88.9202 60.276C87.7179 56.2397 86.1606 52.0759 84.2788 47.8707ZM25.4671 60.2746C16.2895 56.9246 10.6495 52.2315 10.6495 47.8721C10.6495 43.5127 16.2895 38.8195 25.4658 35.4695C26.6667 39.5057 28.224 43.6683 30.1058 47.8734C28.2253 52.0772 26.668 56.2397 25.4671 60.2746ZM75.7516 63.6659C76.5735 62.3785 77.3687 61.0845 78.1254 59.7972C78.8861 58.5045 79.6349 57.1733 80.365 55.8195C81.2001 58.0019 81.9316 60.147 82.554 62.2309C80.3863 62.7828 78.1108 63.2642 75.7516 63.6659ZM31.8333 62.2282C32.4543 60.1456 33.1858 58.0032 34.0196 55.8235C34.7484 57.176 35.4971 58.5059 36.2565 59.7972C37.0132 61.0845 37.8072 62.3772 38.6304 63.6645C36.2725 63.2616 33.9983 62.7815 31.8333 62.2282ZM36.5477 89.1027C35.3189 89.1027 34.2391 88.8433 33.3387 88.3327C31.7561 87.4337 30.6111 85.7035 29.9382 83.1873C28.833 79.4038 28.9581 74.4207 30.2281 68.6476C34.4518 69.7302 38.9947 70.5467 43.7597 71.076C46.5193 74.7545 49.4065 78.1417 52.3615 81.1672C46.357 86.2966 40.7755 89.104 36.5477 89.1027ZM70.6249 71.0787C75.3912 70.548 79.9354 69.7328 84.1605 68.6503C85.63 74.954 85.7457 79.9783 84.4491 83.1887C83.7775 85.7008 82.6351 87.4283 81.0552 88.3234C80.1535 88.834 79.0737 89.0934 77.8462 89.0934V90.4233L77.8448 89.0934C73.6158 89.0934 68.0342 86.2873 62.0311 81.1659C64.9835 78.1431 67.868 74.7571 70.6249 71.0787ZM57.1956 76.6243C55.7061 75.0976 54.2246 73.4605 52.7671 71.7303C54.2566 71.7835 55.7381 71.8101 57.1956 71.8101C58.6519 71.8101 60.132 71.7835 61.6202 71.7303C60.1639 73.4605 58.6838 75.0976 57.1956 76.6243Z" fill="#281159"/>
</g>
<defs>
<filter id="filter0_d_1_1113" x="0" y="0" width="114.391" height="103.744" filterUnits="userSpaceOnUse" color-interpolation-filters="sRGB">
<feFlood flood-opacity="0" result="BackgroundImageFix"/>
<feColorMatrix in="SourceAlpha" type="matrix" values="0 0 0 0 0 0 0 0 0 0 0 0 0 0 0 0 0 0 127 0" result="hardAlpha"/>
<feOffset dy="4"/>
<feGaussianBlur stdDeviation="2"/>
<feComposite in2="hardAlpha" operator="out"/>
<feColorMatrix type="matrix" values="0 0 0 0 0 0 0 0 0 0 0 0 0 0 0 0 0 0 0.25 0"/>
<feBlend mode="normal" in2="BackgroundImageFix" result="effect1_dropShadow_1_1113"/>
<feBlend mode="normal" in="SourceGraphic" in2="effect1_dropShadow_1_1113" result="shape"/>
</filter>
</defs>
</svg>
