<svg width="212" height="98" viewBox="0 0 212 98" fill="none" xmlns="http://www.w3.org/2000/svg">
<path d="M93.6406 24.334C93.5586 26.1152 93.0781 27.6914 92.1992 29.0625C91.3203 30.4219 90.084 31.4766 88.4902 32.2266C86.9082 32.9766 85.0977 33.3516 83.0586 33.3516C79.6953 33.3516 77.0469 32.2559 75.1133 30.0645C73.1797 27.873 72.2129 24.7793 72.2129 20.7832V19.5176C72.2129 17.0098 72.6465 14.8184 73.5137 12.9434C74.3926 11.0566 75.6523 9.60352 77.293 8.58398C78.9336 7.55273 80.832 7.03711 82.9883 7.03711C86.0938 7.03711 88.5898 7.85742 90.4766 9.49805C92.3633 11.127 93.4355 13.377 93.6934 16.248H87.541C87.4941 14.6895 87.1016 13.5703 86.3633 12.8906C85.625 12.2109 84.5 11.8711 82.9883 11.8711C81.4531 11.8711 80.3281 12.4453 79.6133 13.5938C78.8984 14.7422 78.5234 16.5762 78.4883 19.0957V20.9062C78.4883 23.6367 78.8281 25.5879 79.5078 26.7598C80.1992 27.9316 81.3828 28.5176 83.0586 28.5176C84.4766 28.5176 85.5605 28.1836 86.3105 27.5156C87.0605 26.8477 87.459 25.7871 87.5059 24.334H93.6406ZM109.76 26.1973C109.76 25.2949 109.438 24.5918 108.793 24.0879C108.16 23.584 107.041 23.0625 105.436 22.5234C103.83 21.9844 102.518 21.4629 101.498 20.959C98.1816 19.3301 96.5234 17.0918 96.5234 14.2441C96.5234 12.8262 96.9336 11.5781 97.7539 10.5C98.5859 9.41016 99.7578 8.56641 101.27 7.96875C102.781 7.35937 104.48 7.05469 106.367 7.05469C108.207 7.05469 109.854 7.38281 111.307 8.03906C112.771 8.69531 113.908 9.63281 114.717 10.8516C115.525 12.0586 115.93 13.4414 115.93 15H109.777C109.777 13.957 109.455 13.1484 108.811 12.5742C108.178 12 107.316 11.7129 106.227 11.7129C105.125 11.7129 104.252 11.959 103.607 12.4512C102.975 12.9316 102.658 13.5469 102.658 14.2969C102.658 14.9531 103.01 15.5508 103.713 16.0898C104.416 16.6172 105.652 17.168 107.422 17.7422C109.191 18.3047 110.645 18.9141 111.781 19.5703C114.547 21.1641 115.93 23.3613 115.93 26.1621C115.93 28.4004 115.086 30.1582 113.398 31.4355C111.711 32.7129 109.396 33.3516 106.455 33.3516C104.381 33.3516 102.5 32.9824 100.812 32.2441C99.1367 31.4941 97.8711 30.4746 97.0156 29.1855C96.1719 27.8848 95.75 26.3906 95.75 24.7031H101.938C101.938 26.0742 102.289 27.0879 102.992 27.7441C103.707 28.3887 104.861 28.7109 106.455 28.7109C107.475 28.7109 108.277 28.4941 108.863 28.0605C109.461 27.6152 109.76 26.9941 109.76 26.1973ZM132.295 26.1973C132.295 25.2949 131.973 24.5918 131.328 24.0879C130.695 23.584 129.576 23.0625 127.971 22.5234C126.365 21.9844 125.053 21.4629 124.033 20.959C120.717 19.3301 119.059 17.0918 119.059 14.2441C119.059 12.8262 119.469 11.5781 120.289 10.5C121.121 9.41016 122.293 8.56641 123.805 7.96875C125.316 7.35937 127.016 7.05469 128.902 7.05469C130.742 7.05469 132.389 7.38281 133.842 8.03906C135.307 8.69531 136.443 9.63281 137.252 10.8516C138.061 12.0586 138.465 13.4414 138.465 15H132.312C132.312 13.957 131.99 13.1484 131.346 12.5742C130.713 12 129.852 11.7129 128.762 11.7129C127.66 11.7129 126.787 11.959 126.143 12.4512C125.51 12.9316 125.193 13.5469 125.193 14.2969C125.193 14.9531 125.545 15.5508 126.248 16.0898C126.951 16.6172 128.188 17.168 129.957 17.7422C131.727 18.3047 133.18 18.9141 134.316 19.5703C137.082 21.1641 138.465 23.3613 138.465 26.1621C138.465 28.4004 137.621 30.1582 135.934 31.4355C134.246 32.7129 131.932 33.3516 128.99 33.3516C126.916 33.3516 125.035 32.9824 123.348 32.2441C121.672 31.4941 120.406 30.4746 119.551 29.1855C118.707 27.8848 118.285 26.3906 118.285 24.7031H124.473C124.473 26.0742 124.824 27.0879 125.527 27.7441C126.242 28.3887 127.396 28.7109 128.99 28.7109C130.01 28.7109 130.812 28.4941 131.398 28.0605C131.996 27.6152 132.295 26.9941 132.295 26.1973Z" fill="#382A72"/>
<path d="M32.8107 65.6402L21.1834 58.8588C19.2199 57.7137 16.7802 57.7138 14.8166 58.8588L3.1894 65.6402C1.22207 66.7874 0 68.927 0 71.2239V84.776C0 87.0729 1.22207 89.2125 3.18932 90.3598L14.8166 97.1411C16.7805 98.2865 19.2201 98.2861 21.1834 97.1411L32.8106 90.3598C34.7779 89.2125 36 87.0729 36 84.776V71.2239C36 68.9271 34.7779 66.7875 32.8107 65.6402ZM32.9099 84.776C32.9099 85.9592 32.2804 87.0613 31.267 87.6522L19.6397 94.4335C18.6282 95.0235 17.3717 95.0235 16.3602 94.4335L4.73292 87.6522C3.71959 87.0612 3.09013 85.9592 3.09013 84.776V71.2239C3.09013 70.0409 3.71959 68.9388 4.733 68.3478L16.3602 61.5665C17.3718 60.9765 18.6287 60.9767 19.6398 61.5665L31.2671 68.3477C32.2804 68.9388 32.9099 70.0408 32.9099 71.2239V84.776Z" fill="#382A72"/>
<path d="M76.8107 65.6402L65.1834 58.8588C63.2199 57.7137 60.7802 57.7138 58.8166 58.8588L47.1894 65.6402C45.2221 66.7874 44 68.927 44 71.2239V84.776C44 87.0729 45.2221 89.2125 47.1893 90.3598L58.8166 97.1411C60.7805 98.2865 63.2201 98.2861 65.1834 97.1411L76.8106 90.3598C78.7779 89.2125 80 87.0729 80 84.776V71.2239C80 68.9271 78.7779 66.7875 76.8107 65.6402ZM76.9099 84.776C76.9099 85.9592 76.2804 87.0613 75.267 87.6522L63.6397 94.4335C62.6282 95.0235 61.3717 95.0235 60.3602 94.4335L48.7329 87.6522C47.7196 87.0612 47.0901 85.9592 47.0901 84.776V71.2239C47.0901 70.0409 47.7196 68.9388 48.733 68.3478L60.3602 61.5665C61.3718 60.9765 62.6287 60.9767 63.6398 61.5665L75.2671 68.3477C76.2804 68.9388 76.9099 70.0408 76.9099 71.2239V84.776Z" fill="#382A72"/>
<path d="M120.811 65.6402L109.183 58.8588C107.22 57.7137 104.78 57.7138 102.817 58.8588L91.1894 65.6402C89.2221 66.7874 88 68.927 88 71.2239V84.776C88 87.0729 89.2221 89.2125 91.1893 90.3598L102.817 97.1411C104.78 98.2865 107.22 98.2861 109.183 97.1411L120.811 90.3598C122.778 89.2125 124 87.0729 124 84.776V71.2239C124 68.9271 122.778 66.7875 120.811 65.6402ZM120.91 84.776C120.91 85.9592 120.28 87.0613 119.267 87.6522L107.64 94.4335C106.628 95.0235 105.372 95.0235 104.36 94.4335L92.7329 87.6522C91.7196 87.0612 91.0901 85.9592 91.0901 84.776V71.2239C91.0901 70.0409 91.7196 68.9388 92.733 68.3478L104.36 61.5665C105.372 60.9765 106.629 60.9767 107.64 61.5665L119.267 68.3477C120.28 68.9388 120.91 70.0408 120.91 71.2239V84.776Z" fill="#382A72"/>
<path d="M164.811 65.6402L153.183 58.8588C151.22 57.7137 148.78 57.7138 146.817 58.8588L135.189 65.6402C133.222 66.7874 132 68.927 132 71.2239V84.776C132 87.0729 133.222 89.2125 135.189 90.3598L146.817 97.1411C148.78 98.2865 151.22 98.2861 153.183 97.1411L164.811 90.3598C166.778 89.2125 168 87.0729 168 84.776V71.2239C168 68.9271 166.778 66.7875 164.811 65.6402ZM164.91 84.776C164.91 85.9592 164.28 87.0613 163.267 87.6522L151.64 94.4335C150.628 95.0235 149.372 95.0235 148.36 94.4335L136.733 87.6522C135.72 87.0612 135.09 85.9592 135.09 84.776V71.2239C135.09 70.0409 135.72 68.9388 136.733 68.3478L148.36 61.5665C149.372 60.9765 150.629 60.9767 151.64 61.5665L163.267 68.3477C164.28 68.9388 164.91 70.0408 164.91 71.2239V84.776Z" fill="#5A3084"/>
<path d="M208.811 65.6402L197.183 58.8588C195.22 57.7137 192.78 57.7138 190.817 58.8588L179.189 65.6402C177.222 66.7874 176 68.927 176 71.2239V84.776C176 87.0729 177.222 89.2125 179.189 90.3598L190.817 97.1411C192.78 98.2865 195.22 98.2861 197.183 97.1411L208.811 90.3598C210.778 89.2125 212 87.0729 212 84.776V71.2239C212 68.9271 210.778 66.7875 208.811 65.6402ZM208.91 84.776C208.91 85.9592 208.28 87.0613 207.267 87.6522L195.64 94.4335C194.628 95.0235 193.372 95.0235 192.36 94.4335L180.733 87.6522C179.72 87.0612 179.09 85.9592 179.09 84.776V71.2239C179.09 70.0409 179.72 68.9388 180.733 68.3478L192.36 61.5665C193.372 60.9765 194.629 60.9767 195.64 61.5665L207.267 68.3477C208.28 68.9388 208.91 70.0408 208.91 71.2239V84.776Z" fill="#5A3084"/>
</svg>
