<svg width="212" height="98" viewBox="0 0 212 98" fill="none" xmlns="http://www.w3.org/2000/svg">
<path d="M63.1211 7.40625V33H56.9512V7.40625H63.1211ZM73.0703 18.0586V22.8047H61.3633V18.0586H73.0703ZM74.0723 7.40625V12.1699H61.3633V7.40625H74.0723ZM82.6152 13.9805V33H76.6738V13.9805H82.6152ZM76.3223 9.07617C76.3223 8.23242 76.627 7.54102 77.2363 7.00195C77.8457 6.46289 78.6367 6.19336 79.6094 6.19336C80.582 6.19336 81.373 6.46289 81.9824 7.00195C82.5918 7.54102 82.8965 8.23242 82.8965 9.07617C82.8965 9.91992 82.5918 10.6113 81.9824 11.1504C81.373 11.6895 80.582 11.959 79.6094 11.959C78.6367 11.959 77.8457 11.6895 77.2363 11.1504C76.627 10.6113 76.3223 9.91992 76.3223 9.07617ZM98.2246 13.9805H103.604V32.2617C103.604 34.0195 103.199 35.5078 102.391 36.7266C101.582 37.957 100.451 38.8887 98.998 39.5215C97.5566 40.166 95.8691 40.4883 93.9355 40.4883C93.0801 40.4883 92.207 40.377 91.3164 40.1543C90.4258 39.9434 89.5938 39.627 88.8203 39.2051C88.0469 38.7832 87.3965 38.2617 86.8691 37.6406L89.3477 34.1602C89.8281 34.6992 90.4316 35.1562 91.1582 35.5312C91.8848 35.918 92.7402 36.1113 93.7246 36.1113C94.5801 36.1113 95.2949 35.959 95.8691 35.6543C96.4551 35.3496 96.9004 34.9043 97.2051 34.3184C97.5098 33.7441 97.6621 33.0469 97.6621 32.2266V18.4805L98.2246 13.9805ZM85.5859 23.7188V23.3496C85.5859 21.9082 85.7617 20.5957 86.1133 19.4121C86.4766 18.2168 86.9922 17.1914 87.6602 16.3359C88.3398 15.4688 89.1602 14.8008 90.1211 14.332C91.082 13.8633 92.166 13.6289 93.373 13.6289C94.6738 13.6289 95.7402 13.8809 96.5723 14.3848C97.416 14.877 98.0898 15.5684 98.5938 16.459C99.1094 17.3496 99.5078 18.3926 99.7891 19.5879C100.082 20.7715 100.328 22.0488 100.527 23.4199V23.8594C100.328 25.1484 100.053 26.3672 99.7012 27.5156C99.3613 28.6523 98.916 29.6602 98.3652 30.5391C97.8145 31.418 97.123 32.1094 96.291 32.6133C95.4707 33.1055 94.4863 33.3516 93.3379 33.3516C92.1426 33.3516 91.0645 33.1113 90.1035 32.6309C89.1543 32.1504 88.3398 31.4766 87.6602 30.6094C86.9922 29.7422 86.4766 28.7227 86.1133 27.5508C85.7617 26.3789 85.5859 25.1016 85.5859 23.7188ZM91.5098 23.3496V23.7188C91.5098 24.4336 91.5742 25.0957 91.7031 25.7051C91.8438 26.3145 92.0547 26.8535 92.3359 27.3223C92.6172 27.7793 92.9629 28.1367 93.373 28.3945C93.7949 28.6523 94.2871 28.7812 94.8496 28.7812C95.7051 28.7812 96.3965 28.5996 96.9238 28.2363C97.4512 27.873 97.832 27.3574 98.0664 26.6895C98.3008 26.0215 98.4004 25.2363 98.3652 24.334V22.9453C98.3887 22.1719 98.3359 21.4922 98.207 20.9062C98.0781 20.3086 97.873 19.8105 97.5918 19.4121C97.3223 19.0137 96.959 18.7148 96.502 18.5156C96.0566 18.3047 95.5176 18.1992 94.8848 18.1992C94.334 18.1992 93.8477 18.3281 93.4258 18.5859C93.0039 18.8438 92.6523 19.207 92.3711 19.6758C92.0898 20.1328 91.873 20.6777 91.7207 21.3105C91.5801 21.9316 91.5098 22.6113 91.5098 23.3496ZM112.99 18.0059V33H107.066V13.9805H112.621L112.99 18.0059ZM112.27 22.8398L110.916 22.875C110.916 21.5391 111.074 20.3086 111.391 19.1836C111.707 18.0586 112.176 17.0801 112.797 16.248C113.418 15.416 114.18 14.7715 115.082 14.3145C115.996 13.8574 117.051 13.6289 118.246 13.6289C119.078 13.6289 119.834 13.7578 120.514 14.0156C121.193 14.2617 121.779 14.6543 122.271 15.1934C122.764 15.7207 123.139 16.4121 123.396 17.2676C123.666 18.1113 123.801 19.125 123.801 20.3086V33H117.877V21.0645C117.877 20.2559 117.783 19.6465 117.596 19.2363C117.42 18.8262 117.162 18.5508 116.822 18.4102C116.482 18.2695 116.066 18.1992 115.574 18.1992C115.059 18.1992 114.596 18.3164 114.186 18.5508C113.775 18.7852 113.424 19.1133 113.131 19.5352C112.85 19.9453 112.633 20.4316 112.48 20.9941C112.34 21.5566 112.27 22.1719 112.27 22.8398ZM123.133 22.8398L121.48 22.875C121.48 21.5391 121.627 20.3086 121.92 19.1836C122.225 18.0586 122.676 17.0801 123.273 16.248C123.883 15.416 124.639 14.7715 125.541 14.3145C126.443 13.8574 127.492 13.6289 128.688 13.6289C129.555 13.6289 130.352 13.7578 131.078 14.0156C131.805 14.2734 132.432 14.6895 132.959 15.2637C133.486 15.8379 133.896 16.5996 134.189 17.5488C134.482 18.4863 134.629 19.6465 134.629 21.0293V33H128.688V21.0293C128.688 20.2441 128.594 19.6523 128.406 19.2539C128.23 18.8438 127.973 18.5684 127.633 18.4277C127.293 18.2754 126.889 18.1992 126.42 18.1992C125.857 18.1992 125.371 18.3164 124.961 18.5508C124.551 18.7852 124.205 19.1133 123.924 19.5352C123.654 19.9453 123.455 20.4316 123.326 20.9941C123.197 21.5566 123.133 22.1719 123.133 22.8398ZM147.9 28.2188V20.3789C147.9 19.8398 147.824 19.377 147.672 18.9902C147.52 18.6035 147.279 18.3047 146.951 18.0938C146.623 17.8711 146.184 17.7598 145.633 17.7598C145.188 17.7598 144.807 17.8359 144.49 17.9883C144.174 18.1406 143.934 18.3691 143.77 18.6738C143.605 18.9785 143.523 19.3652 143.523 19.834H137.6C137.6 18.9551 137.793 18.1406 138.18 17.3906C138.578 16.6289 139.141 15.9668 139.867 15.4043C140.605 14.8418 141.484 14.4082 142.504 14.1035C143.535 13.7871 144.684 13.6289 145.949 13.6289C147.461 13.6289 148.809 13.8809 149.992 14.3848C151.188 14.8887 152.131 15.6445 152.822 16.6523C153.514 17.6484 153.859 18.9023 153.859 20.4141V28.2012C153.859 29.4434 153.93 30.3867 154.07 31.0312C154.211 31.6641 154.41 32.2207 154.668 32.7012V33H148.727C148.445 32.4141 148.234 31.6992 148.094 30.8555C147.965 30 147.9 29.1211 147.9 28.2188ZM148.621 21.3809L148.656 24.5449H146.037C145.486 24.5449 145.018 24.6211 144.631 24.7734C144.256 24.9258 143.951 25.1367 143.717 25.4062C143.494 25.6641 143.33 25.957 143.225 26.2852C143.131 26.6133 143.084 26.959 143.084 27.3223C143.084 27.6738 143.166 27.9902 143.33 28.2715C143.506 28.541 143.74 28.752 144.033 28.9043C144.326 29.0566 144.654 29.1328 145.018 29.1328C145.674 29.1328 146.23 29.0098 146.688 28.7637C147.156 28.5059 147.514 28.1953 147.76 27.832C148.006 27.4688 148.129 27.1289 148.129 26.8125L149.43 29.2383C149.195 29.707 148.926 30.1816 148.621 30.6621C148.328 31.1426 147.959 31.5879 147.514 31.998C147.08 32.3965 146.547 32.7246 145.914 32.9824C145.281 33.2285 144.514 33.3516 143.611 33.3516C142.439 33.3516 141.361 33.1113 140.377 32.6309C139.404 32.1504 138.625 31.4824 138.039 30.627C137.453 29.7598 137.16 28.7637 137.16 27.6387C137.16 26.6543 137.336 25.7754 137.688 25.002C138.051 24.2285 138.596 23.5723 139.322 23.0332C140.049 22.4941 140.975 22.084 142.1 21.8027C143.225 21.5215 144.549 21.3809 146.072 21.3809H148.621Z" fill="#382A72"/>
<path d="M32.8107 65.6402L21.1834 58.8588C19.2199 57.7137 16.7802 57.7138 14.8166 58.8588L3.1894 65.6402C1.22207 66.7874 0 68.927 0 71.2239V84.776C0 87.0729 1.22207 89.2125 3.18932 90.3598L14.8166 97.1411C16.7805 98.2865 19.2201 98.2861 21.1834 97.1411L32.8106 90.3598C34.7779 89.2125 36 87.0729 36 84.776V71.2239C36 68.9271 34.7779 66.7875 32.8107 65.6402ZM32.9099 84.776C32.9099 85.9592 32.2804 87.0613 31.267 87.6522L19.6397 94.4335C18.6282 95.0235 17.3717 95.0235 16.3602 94.4335L4.73292 87.6522C3.71959 87.0612 3.09013 85.9592 3.09013 84.776V71.2239C3.09013 70.0409 3.71959 68.9388 4.733 68.3478L16.3602 61.5665C17.3718 60.9765 18.6287 60.9767 19.6398 61.5665L31.2671 68.3477C32.2804 68.9388 32.9099 70.0408 32.9099 71.2239V84.776Z" fill="#382A72"/>
<path d="M76.8107 65.6402L65.1834 58.8588C63.2199 57.7137 60.7802 57.7138 58.8166 58.8588L47.1894 65.6402C45.2221 66.7874 44 68.927 44 71.2239V84.776C44 87.0729 45.2221 89.2125 47.1893 90.3598L58.8166 97.1411C60.7805 98.2865 63.2201 98.2861 65.1834 97.1411L76.8106 90.3598C78.7779 89.2125 80 87.0729 80 84.776V71.2239C80 68.9271 78.7779 66.7875 76.8107 65.6402ZM76.9099 84.776C76.9099 85.9592 76.2804 87.0613 75.267 87.6522L63.6397 94.4335C62.6282 95.0235 61.3717 95.0235 60.3602 94.4335L48.7329 87.6522C47.7196 87.0612 47.0901 85.9592 47.0901 84.776V71.2239C47.0901 70.0409 47.7196 68.9388 48.733 68.3478L60.3602 61.5665C61.3718 60.9765 62.6287 60.9767 63.6398 61.5665L75.2671 68.3477C76.2804 68.9388 76.9099 70.0408 76.9099 71.2239V84.776Z" fill="#382A72"/>
<path d="M120.811 65.6402L109.183 58.8588C107.22 57.7137 104.78 57.7138 102.817 58.8588L91.1894 65.6402C89.2221 66.7874 88 68.927 88 71.2239V84.776C88 87.0729 89.2221 89.2125 91.1893 90.3598L102.817 97.1411C104.78 98.2865 107.22 98.2861 109.183 97.1411L120.811 90.3598C122.778 89.2125 124 87.0729 124 84.776V71.2239C124 68.9271 122.778 66.7875 120.811 65.6402ZM120.91 84.776C120.91 85.9592 120.28 87.0613 119.267 87.6522L107.64 94.4335C106.628 95.0235 105.372 95.0235 104.36 94.4335L92.7329 87.6522C91.7196 87.0612 91.0901 85.9592 91.0901 84.776V71.2239C91.0901 70.0409 91.7196 68.9388 92.733 68.3478L104.36 61.5665C105.372 60.9765 106.629 60.9767 107.64 61.5665L119.267 68.3477C120.28 68.9388 120.91 70.0408 120.91 71.2239V84.776Z" fill="#382A72"/>
<path d="M164.811 65.6402L153.183 58.8588C151.22 57.7137 148.78 57.7138 146.817 58.8588L135.189 65.6402C133.222 66.7874 132 68.927 132 71.2239V84.776C132 87.0729 133.222 89.2125 135.189 90.3598L146.817 97.1411C148.78 98.2865 151.22 98.2861 153.183 97.1411L164.811 90.3598C166.778 89.2125 168 87.0729 168 84.776V71.2239C168 68.9271 166.778 66.7875 164.811 65.6402ZM164.91 84.776C164.91 85.9592 164.28 87.0613 163.267 87.6522L151.64 94.4335C150.628 95.0235 149.372 95.0235 148.36 94.4335L136.733 87.6522C135.72 87.0612 135.09 85.9592 135.09 84.776V71.2239C135.09 70.0409 135.72 68.9388 136.733 68.3478L148.36 61.5665C149.372 60.9765 150.629 60.9767 151.64 61.5665L163.267 68.3477C164.28 68.9388 164.91 70.0408 164.91 71.2239V84.776Z" fill="#382A72"/>
<path d="M208.811 65.6402L197.183 58.8588C195.22 57.7137 192.78 57.7138 190.817 58.8588L179.189 65.6402C177.222 66.7874 176 68.927 176 71.2239V84.776C176 87.0729 177.222 89.2125 179.189 90.3598L190.817 97.1411C192.78 98.2865 195.22 98.2861 197.183 97.1411L208.811 90.3598C210.778 89.2125 212 87.0729 212 84.776V71.2239C212 68.9271 210.778 66.7875 208.811 65.6402ZM208.91 84.776C208.91 85.9592 208.28 87.0613 207.267 87.6522L195.64 94.4335C194.628 95.0235 193.372 95.0235 192.36 94.4335L180.733 87.6522C179.72 87.0612 179.09 85.9592 179.09 84.776V71.2239C179.09 70.0409 179.72 68.9388 180.733 68.3478L192.36 61.5665C193.372 60.9765 194.629 60.9767 195.64 61.5665L207.267 68.3477C208.28 68.9388 208.91 70.0408 208.91 71.2239V84.776Z" fill="#382A72"/>
</svg>
