<svg width="212" height="98" viewBox="0 0 212 98" fill="none" xmlns="http://www.w3.org/2000/svg">
<path d="M79.3262 33H73.1914V22.3125H64.1035V33H57.9336V7.40625H64.1035V17.5664H73.1914V7.40625H79.3262V33ZM102.811 12.1699H95.1289V33H88.959V12.1699H81.418V7.40625H102.811V12.1699ZM113.533 7.40625L119.246 25.2129L124.941 7.40625H133.062V33H126.875V27.0234L127.473 14.7891L121.285 33H117.207L111.002 14.7715L111.6 27.0234V33H105.43V7.40625H113.533ZM143.17 28.2539H153.91V33H137V7.40625H143.17V28.2539Z" fill="#382A72"/>
<path d="M32.8107 65.6402L21.1834 58.8588C19.2199 57.7137 16.7802 57.7138 14.8166 58.8588L3.1894 65.6402C1.22207 66.7874 0 68.927 0 71.2239V84.776C0 87.0729 1.22207 89.2125 3.18932 90.3598L14.8166 97.1411C16.7805 98.2865 19.2201 98.2861 21.1834 97.1411L32.8106 90.3598C34.7779 89.2125 36 87.0729 36 84.776V71.2239C36 68.9271 34.7779 66.7875 32.8107 65.6402ZM32.9099 84.776C32.9099 85.9592 32.2804 87.0613 31.267 87.6522L19.6397 94.4335C18.6282 95.0235 17.3717 95.0235 16.3602 94.4335L4.73292 87.6522C3.71959 87.0612 3.09013 85.9592 3.09013 84.776V71.2239C3.09013 70.0409 3.71959 68.9388 4.733 68.3478L16.3602 61.5665C17.3718 60.9765 18.6287 60.9767 19.6398 61.5665L31.2671 68.3477C32.2804 68.9388 32.9099 70.0408 32.9099 71.2239V84.776Z" fill="#382A72"/>
<path d="M76.8107 65.6402L65.1834 58.8588C63.2199 57.7137 60.7802 57.7138 58.8166 58.8588L47.1894 65.6402C45.2221 66.7874 44 68.927 44 71.2239V84.776C44 87.0729 45.2221 89.2125 47.1893 90.3598L58.8166 97.1411C60.7805 98.2865 63.2201 98.2861 65.1834 97.1411L76.8106 90.3598C78.7779 89.2125 80 87.0729 80 84.776V71.2239C80 68.9271 78.7779 66.7875 76.8107 65.6402ZM76.9099 84.776C76.9099 85.9592 76.2804 87.0613 75.267 87.6522L63.6397 94.4335C62.6282 95.0235 61.3717 95.0235 60.3602 94.4335L48.7329 87.6522C47.7196 87.0612 47.0901 85.9592 47.0901 84.776V71.2239C47.0901 70.0409 47.7196 68.9388 48.733 68.3478L60.3602 61.5665C61.3718 60.9765 62.6287 60.9767 63.6398 61.5665L75.2671 68.3477C76.2804 68.9388 76.9099 70.0408 76.9099 71.2239V84.776Z" fill="#382A72"/>
<path d="M120.811 65.6402L109.183 58.8588C107.22 57.7137 104.78 57.7138 102.817 58.8588L91.1894 65.6402C89.2221 66.7874 88 68.927 88 71.2239V84.776C88 87.0729 89.2221 89.2125 91.1893 90.3598L102.817 97.1411C104.78 98.2865 107.22 98.2861 109.183 97.1411L120.811 90.3598C122.778 89.2125 124 87.0729 124 84.776V71.2239C124 68.9271 122.778 66.7875 120.811 65.6402ZM120.91 84.776C120.91 85.9592 120.28 87.0613 119.267 87.6522L107.64 94.4335C106.628 95.0235 105.372 95.0235 104.36 94.4335L92.7329 87.6522C91.7196 87.0612 91.0901 85.9592 91.0901 84.776V71.2239C91.0901 70.0409 91.7196 68.9388 92.733 68.3478L104.36 61.5665C105.372 60.9765 106.629 60.9767 107.64 61.5665L119.267 68.3477C120.28 68.9388 120.91 70.0408 120.91 71.2239V84.776Z" fill="#382A72"/>
<path d="M164.811 65.6402L153.183 58.8588C151.22 57.7137 148.78 57.7138 146.817 58.8588L135.189 65.6402C133.222 66.7874 132 68.927 132 71.2239V84.776C132 87.0729 133.222 89.2125 135.189 90.3598L146.817 97.1411C148.78 98.2865 151.22 98.2861 153.183 97.1411L164.811 90.3598C166.778 89.2125 168 87.0729 168 84.776V71.2239C168 68.9271 166.778 66.7875 164.811 65.6402ZM164.91 84.776C164.91 85.9592 164.28 87.0613 163.267 87.6522L151.64 94.4335C150.628 95.0235 149.372 95.0235 148.36 94.4335L136.733 87.6522C135.72 87.0612 135.09 85.9592 135.09 84.776V71.2239C135.09 70.0409 135.72 68.9388 136.733 68.3478L148.36 61.5665C149.372 60.9765 150.629 60.9767 151.64 61.5665L163.267 68.3477C164.28 68.9388 164.91 70.0408 164.91 71.2239V84.776Z" fill="#5A3084"/>
<path d="M208.811 65.6402L197.183 58.8588C195.22 57.7137 192.78 57.7138 190.817 58.8588L179.189 65.6402C177.222 66.7874 176 68.927 176 71.2239V84.776C176 87.0729 177.222 89.2125 179.189 90.3598L190.817 97.1411C192.78 98.2865 195.22 98.2861 197.183 97.1411L208.811 90.3598C210.778 89.2125 212 87.0729 212 84.776V71.2239C212 68.9271 210.778 66.7875 208.811 65.6402ZM208.91 84.776C208.91 85.9592 208.28 87.0613 207.267 87.6522L195.64 94.4335C194.628 95.0235 193.372 95.0235 192.36 94.4335L180.733 87.6522C179.72 87.0612 179.09 85.9592 179.09 84.776V71.2239C179.09 70.0409 179.72 68.9388 180.733 68.3478L192.36 61.5665C193.372 60.9765 194.629 60.9767 195.64 61.5665L207.267 68.3477C208.28 68.9388 208.91 70.0408 208.91 71.2239V84.776Z" fill="#5A3084"/>
</svg>
