<svg width="212" height="98" viewBox="0 0 212 98" fill="none" xmlns="http://www.w3.org/2000/svg">
<path d="M31.1289 7.40625H37.2812V24.9668C37.2812 26.5957 36.9004 28.0488 36.1387 29.3262C35.3887 30.6035 34.334 31.5938 32.9746 32.2969C31.627 33 30.1211 33.3516 28.457 33.3516C25.668 33.3516 23.5 32.6484 21.9531 31.2422C20.4062 29.8359 19.6328 27.8438 19.6328 25.2656H25.8203C25.8203 26.4375 26.0195 27.2871 26.418 27.8145C26.8281 28.3418 27.5078 28.6055 28.457 28.6055C29.3125 28.6055 29.9688 28.2891 30.4258 27.6562C30.8945 27.0117 31.1289 26.1152 31.1289 24.9668V7.40625ZM51.625 33C51.4141 32.6133 51.2266 32.0449 51.0625 31.2949C49.9727 32.666 48.4492 33.3516 46.4922 33.3516C44.6992 33.3516 43.1758 32.8125 41.9219 31.7344C40.668 30.6445 40.041 29.2793 40.041 27.6387C40.041 25.5762 40.8027 24.0176 42.3262 22.9629C43.8496 21.9082 46.0645 21.3809 48.9707 21.3809H50.7988V20.3789C50.7988 18.6328 50.043 17.7598 48.5312 17.7598C47.125 17.7598 46.4219 18.4512 46.4219 19.834H40.498C40.498 17.9941 41.2773 16.5 42.8359 15.3516C44.4062 14.2031 46.4043 13.6289 48.8301 13.6289C51.2559 13.6289 53.1719 14.2207 54.5781 15.4043C55.9844 16.5879 56.7051 18.2109 56.7402 20.2734V28.6934C56.7637 30.4395 57.0332 31.7754 57.5488 32.7012V33H51.625ZM47.916 29.1328C48.6543 29.1328 49.2637 28.9746 49.7441 28.6582C50.2363 28.3418 50.5879 27.9844 50.7988 27.5859V24.5449H49.0762C47.0137 24.5449 45.9824 25.4707 45.9824 27.3223C45.9824 27.8613 46.1641 28.3008 46.5273 28.6406C46.8906 28.9688 47.3535 29.1328 47.916 29.1328ZM67.3398 25.9512L70.3457 13.9805H76.5859L70.3809 33H64.334L58.1289 13.9805H64.3867L67.3398 25.9512ZM88.7852 33C88.5742 32.6133 88.3867 32.0449 88.2227 31.2949C87.1328 32.666 85.6094 33.3516 83.6523 33.3516C81.8594 33.3516 80.3359 32.8125 79.082 31.7344C77.8281 30.6445 77.2012 29.2793 77.2012 27.6387C77.2012 25.5762 77.9629 24.0176 79.4863 22.9629C81.0098 21.9082 83.2246 21.3809 86.1309 21.3809H87.959V20.3789C87.959 18.6328 87.2031 17.7598 85.6914 17.7598C84.2852 17.7598 83.582 18.4512 83.582 19.834H77.6582C77.6582 17.9941 78.4375 16.5 79.9961 15.3516C81.5664 14.2031 83.5645 13.6289 85.9902 13.6289C88.416 13.6289 90.332 14.2207 91.7383 15.4043C93.1445 16.5879 93.8652 18.2109 93.9004 20.2734V28.6934C93.9238 30.4395 94.1934 31.7754 94.709 32.7012V33H88.7852ZM85.0762 29.1328C85.8145 29.1328 86.4238 28.9746 86.9043 28.6582C87.3965 28.3418 87.748 27.9844 87.959 27.5859V24.5449H86.2363C84.1738 24.5449 83.1426 25.4707 83.1426 27.3223C83.1426 27.8613 83.3242 28.3008 83.6875 28.6406C84.0508 28.9688 84.5137 29.1328 85.0762 29.1328ZM110.67 26.1973C110.67 25.2949 110.348 24.5918 109.703 24.0879C109.07 23.584 107.951 23.0625 106.346 22.5234C104.74 21.9844 103.428 21.4629 102.408 20.959C99.0918 19.3301 97.4336 17.0918 97.4336 14.2441C97.4336 12.8262 97.8438 11.5781 98.6641 10.5C99.4961 9.41016 100.668 8.56641 102.18 7.96875C103.691 7.35937 105.391 7.05469 107.277 7.05469C109.117 7.05469 110.764 7.38281 112.217 8.03906C113.682 8.69531 114.818 9.63281 115.627 10.8516C116.436 12.0586 116.84 13.4414 116.84 15H110.688C110.688 13.957 110.365 13.1484 109.721 12.5742C109.088 12 108.227 11.7129 107.137 11.7129C106.035 11.7129 105.162 11.959 104.518 12.4512C103.885 12.9316 103.568 13.5469 103.568 14.2969C103.568 14.9531 103.92 15.5508 104.623 16.0898C105.326 16.6172 106.562 17.168 108.332 17.7422C110.102 18.3047 111.555 18.9141 112.691 19.5703C115.457 21.1641 116.84 23.3613 116.84 26.1621C116.84 28.4004 115.996 30.1582 114.309 31.4355C112.621 32.7129 110.307 33.3516 107.365 33.3516C105.291 33.3516 103.41 32.9824 101.723 32.2441C100.047 31.4941 98.7812 30.4746 97.9258 29.1855C97.082 27.8848 96.6602 26.3906 96.6602 24.7031H102.848C102.848 26.0742 103.199 27.0879 103.902 27.7441C104.617 28.3887 105.771 28.7109 107.365 28.7109C108.385 28.7109 109.188 28.4941 109.773 28.0605C110.371 27.6152 110.67 26.9941 110.67 26.1973ZM127.773 28.7812C128.605 28.7812 129.25 28.5586 129.707 28.1133C130.164 27.6562 130.387 27.0234 130.375 26.2148H135.93C135.93 28.3008 135.18 30.0117 133.68 31.3477C132.191 32.6836 130.27 33.3516 127.914 33.3516C125.148 33.3516 122.969 32.4844 121.375 30.75C119.781 29.0156 118.984 26.6133 118.984 23.543V23.2969C118.984 21.375 119.336 19.6816 120.039 18.2168C120.754 16.7402 121.779 15.6094 123.115 14.8242C124.451 14.0273 126.033 13.6289 127.861 13.6289C130.334 13.6289 132.297 14.3145 133.75 15.6855C135.203 17.0566 135.93 18.9141 135.93 21.2578H130.375C130.375 20.2734 130.135 19.5176 129.654 18.9902C129.174 18.4629 128.529 18.1992 127.721 18.1992C126.186 18.1992 125.289 19.1777 125.031 21.1348C124.949 21.7559 124.908 22.6113 124.908 23.7012C124.908 25.6113 125.137 26.9355 125.594 27.6738C126.051 28.4121 126.777 28.7812 127.773 28.7812ZM149.939 19.3418L147.988 19.2012C146.125 19.2012 144.93 19.7871 144.402 20.959V33H138.479V13.9805H144.033L144.227 16.4238C145.223 14.5605 146.611 13.6289 148.393 13.6289C149.025 13.6289 149.576 13.6992 150.045 13.8398L149.939 19.3418ZM158.324 33H152.383V13.9805H158.324V33ZM152.031 9.07617C152.031 8.23242 152.336 7.54102 152.945 7.00195C153.555 6.46289 154.346 6.19336 155.318 6.19336C156.291 6.19336 157.082 6.46289 157.691 7.00195C158.301 7.54102 158.605 8.23242 158.605 9.07617C158.605 9.91992 158.301 10.6113 157.691 11.1504C157.082 11.6895 156.291 11.959 155.318 11.959C154.346 11.959 153.555 11.6895 152.945 11.1504C152.336 10.6113 152.031 9.91992 152.031 9.07617ZM179.646 23.6309C179.646 26.584 178.979 28.9453 177.643 30.7148C176.318 32.4727 174.525 33.3516 172.264 33.3516C170.518 33.3516 169.082 32.7129 167.957 31.4355V40.3125H162.033V13.9805H167.57L167.746 15.7383C168.883 14.332 170.377 13.6289 172.229 13.6289C174.572 13.6289 176.395 14.4961 177.695 16.2305C178.996 17.9531 179.646 20.3262 179.646 23.3496V23.6309ZM173.723 23.2617C173.723 19.8867 172.738 18.1992 170.77 18.1992C169.363 18.1992 168.426 18.7031 167.957 19.7109V27.1992C168.473 28.2539 169.422 28.7812 170.805 28.7812C172.691 28.7812 173.664 27.1523 173.723 23.8945V23.2617ZM189.174 9.25195V13.9805H192.303V18.0938H189.174V26.7949C189.174 27.5098 189.303 28.0078 189.561 28.2891C189.818 28.5703 190.328 28.7109 191.09 28.7109C191.676 28.7109 192.168 28.6758 192.566 28.6055V32.8418C191.5 33.1816 190.387 33.3516 189.227 33.3516C187.188 33.3516 185.682 32.8711 184.709 31.9102C183.736 30.9492 183.25 29.4902 183.25 27.5332V18.0938H180.824V13.9805H183.25V9.25195H189.174Z" fill="#382A72"/>
<path d="M32.8107 65.6402L21.1834 58.8588C19.2199 57.7137 16.7802 57.7138 14.8166 58.8588L3.1894 65.6402C1.22207 66.7874 0 68.927 0 71.2239V84.776C0 87.0729 1.22207 89.2125 3.18932 90.3598L14.8166 97.1411C16.7805 98.2865 19.2201 98.2861 21.1834 97.1411L32.8106 90.3598C34.7779 89.2125 36 87.0729 36 84.776V71.2239C36 68.9271 34.7779 66.7875 32.8107 65.6402ZM32.9099 84.776C32.9099 85.9592 32.2804 87.0613 31.267 87.6522L19.6397 94.4335C18.6282 95.0235 17.3717 95.0235 16.3602 94.4335L4.73292 87.6522C3.71959 87.0612 3.09013 85.9592 3.09013 84.776V71.2239C3.09013 70.0409 3.71959 68.9388 4.733 68.3478L16.3602 61.5665C17.3718 60.9765 18.6287 60.9767 19.6398 61.5665L31.2671 68.3477C32.2804 68.9388 32.9099 70.0408 32.9099 71.2239V84.776Z" fill="#382A72"/>
<path d="M76.8107 65.6402L65.1834 58.8588C63.2199 57.7137 60.7802 57.7138 58.8166 58.8588L47.1894 65.6402C45.2221 66.7874 44 68.927 44 71.2239V84.776C44 87.0729 45.2221 89.2125 47.1893 90.3598L58.8166 97.1411C60.7805 98.2865 63.2201 98.2861 65.1834 97.1411L76.8106 90.3598C78.7779 89.2125 80 87.0729 80 84.776V71.2239C80 68.9271 78.7779 66.7875 76.8107 65.6402ZM76.9099 84.776C76.9099 85.9592 76.2804 87.0613 75.267 87.6522L63.6397 94.4335C62.6282 95.0235 61.3717 95.0235 60.3602 94.4335L48.7329 87.6522C47.7196 87.0612 47.0901 85.9592 47.0901 84.776V71.2239C47.0901 70.0409 47.7196 68.9388 48.733 68.3478L60.3602 61.5665C61.3718 60.9765 62.6287 60.9767 63.6398 61.5665L75.2671 68.3477C76.2804 68.9388 76.9099 70.0408 76.9099 71.2239V84.776Z" fill="#5A3084"/>
<path d="M120.811 65.6402L109.183 58.8588C107.22 57.7137 104.78 57.7138 102.817 58.8588L91.1894 65.6402C89.2221 66.7874 88 68.927 88 71.2239V84.776C88 87.0729 89.2221 89.2125 91.1893 90.3598L102.817 97.1411C104.78 98.2865 107.22 98.2861 109.183 97.1411L120.811 90.3598C122.778 89.2125 124 87.0729 124 84.776V71.2239C124 68.9271 122.778 66.7875 120.811 65.6402ZM120.91 84.776C120.91 85.9592 120.28 87.0613 119.267 87.6522L107.64 94.4335C106.628 95.0235 105.372 95.0235 104.36 94.4335L92.7329 87.6522C91.7196 87.0612 91.0901 85.9592 91.0901 84.776V71.2239C91.0901 70.0409 91.7196 68.9388 92.733 68.3478L104.36 61.5665C105.372 60.9765 106.629 60.9767 107.64 61.5665L119.267 68.3477C120.28 68.9388 120.91 70.0408 120.91 71.2239V84.776Z" fill="#5A3084"/>
<path d="M164.811 65.6402L153.183 58.8588C151.22 57.7137 148.78 57.7138 146.817 58.8588L135.189 65.6402C133.222 66.7874 132 68.927 132 71.2239V84.776C132 87.0729 133.222 89.2125 135.189 90.3598L146.817 97.1411C148.78 98.2865 151.22 98.2861 153.183 97.1411L164.811 90.3598C166.778 89.2125 168 87.0729 168 84.776V71.2239C168 68.9271 166.778 66.7875 164.811 65.6402ZM164.91 84.776C164.91 85.9592 164.28 87.0613 163.267 87.6522L151.64 94.4335C150.628 95.0235 149.372 95.0235 148.36 94.4335L136.733 87.6522C135.72 87.0612 135.09 85.9592 135.09 84.776V71.2239C135.09 70.0409 135.72 68.9388 136.733 68.3478L148.36 61.5665C149.372 60.9765 150.629 60.9767 151.64 61.5665L163.267 68.3477C164.28 68.9388 164.91 70.0408 164.91 71.2239V84.776Z" fill="#5A3084"/>
<path d="M208.811 65.6402L197.183 58.8588C195.22 57.7137 192.78 57.7138 190.817 58.8588L179.189 65.6402C177.222 66.7874 176 68.927 176 71.2239V84.776C176 87.0729 177.222 89.2125 179.189 90.3598L190.817 97.1411C192.78 98.2865 195.22 98.2861 197.183 97.1411L208.811 90.3598C210.778 89.2125 212 87.0729 212 84.776V71.2239C212 68.9271 210.778 66.7875 208.811 65.6402ZM208.91 84.776C208.91 85.9592 208.28 87.0613 207.267 87.6522L195.64 94.4335C194.628 95.0235 193.372 95.0235 192.36 94.4335L180.733 87.6522C179.72 87.0612 179.09 85.9592 179.09 84.776V71.2239C179.09 70.0409 179.72 68.9388 180.733 68.3478L192.36 61.5665C193.372 60.9765 194.629 60.9767 195.64 61.5665L207.267 68.3477C208.28 68.9388 208.91 70.0408 208.91 71.2239V84.776Z" fill="#5A3084"/>
</svg>
