<svg width="212" height="98" viewBox="0 0 212 98" fill="none" xmlns="http://www.w3.org/2000/svg">
<path d="M57.0371 7.40625L62.75 25.2129L68.4453 7.40625H76.5664V33H70.3789V27.0234L70.9766 14.7891L64.7891 33H60.7109L54.5059 14.7715L55.1035 27.0234V33H48.9336V7.40625H57.0371ZM87.834 24.7031L90.998 13.9805H97.3438L89.5918 36.1816L89.2578 36.9902C88.1562 39.4512 86.2109 40.6816 83.4219 40.6816C82.6484 40.6816 81.834 40.5645 80.9785 40.3301V36.0938H81.752C82.584 36.0938 83.2168 35.9707 83.6504 35.7246C84.0957 35.4902 84.4238 35.0625 84.6348 34.4414L85.1094 33.1758L78.5 13.9805H84.8281L87.834 24.7031ZM112.373 26.1973C112.373 25.2949 112.051 24.5918 111.406 24.0879C110.773 23.584 109.654 23.0625 108.049 22.5234C106.443 21.9844 105.131 21.4629 104.111 20.959C100.795 19.3301 99.1367 17.0918 99.1367 14.2441C99.1367 12.8262 99.5469 11.5781 100.367 10.5C101.199 9.41016 102.371 8.56641 103.883 7.96875C105.395 7.35937 107.094 7.05469 108.98 7.05469C110.82 7.05469 112.467 7.38281 113.92 8.03906C115.385 8.69531 116.521 9.63281 117.33 10.8516C118.139 12.0586 118.543 13.4414 118.543 15H112.391C112.391 13.957 112.068 13.1484 111.424 12.5742C110.791 12 109.93 11.7129 108.84 11.7129C107.738 11.7129 106.865 11.959 106.221 12.4512C105.588 12.9316 105.271 13.5469 105.271 14.2969C105.271 14.9531 105.623 15.5508 106.326 16.0898C107.029 16.6172 108.266 17.168 110.035 17.7422C111.805 18.3047 113.258 18.9141 114.395 19.5703C117.16 21.1641 118.543 23.3613 118.543 26.1621C118.543 28.4004 117.699 30.1582 116.012 31.4355C114.324 32.7129 112.01 33.3516 109.068 33.3516C106.994 33.3516 105.113 32.9824 103.426 32.2441C101.75 31.4941 100.484 30.4746 99.6289 29.1855C98.7852 27.8848 98.3633 26.3906 98.3633 24.7031H104.551C104.551 26.0742 104.902 27.0879 105.605 27.7441C106.32 28.3887 107.475 28.7109 109.068 28.7109C110.088 28.7109 110.891 28.4941 111.477 28.0605C112.074 27.6152 112.373 26.9941 112.373 26.1973ZM143.416 20.7305C143.416 23.0977 143.023 25.166 142.238 26.9355C141.453 28.6934 140.369 30.1055 138.986 31.1719L143.117 34.4414L139.303 37.6758L133.801 33.2461C133.285 33.3164 132.77 33.3516 132.254 33.3516C130.074 33.3516 128.141 32.8477 126.453 31.8398C124.766 30.832 123.447 29.3906 122.498 27.5156C121.561 25.6406 121.074 23.4844 121.039 21.0469V19.6934C121.039 17.1738 121.496 14.959 122.41 13.0488C123.336 11.1387 124.648 9.66211 126.348 8.61914C128.059 7.57617 130.016 7.05469 132.219 7.05469C134.387 7.05469 136.32 7.57031 138.02 8.60156C139.719 9.63281 141.037 11.1035 141.975 13.0137C142.924 14.9121 143.404 17.0918 143.416 19.5527V20.7305ZM137.141 19.6582C137.141 17.1152 136.713 15.1875 135.857 13.875C135.014 12.5508 133.801 11.8887 132.219 11.8887C130.59 11.8887 129.365 12.5391 128.545 13.8398C127.725 15.1406 127.309 17.0449 127.297 19.5527V20.7305C127.297 23.25 127.713 25.1836 128.545 26.5312C129.377 27.8672 130.613 28.5352 132.254 28.5352C133.824 28.5352 135.025 27.873 135.857 26.5488C136.701 25.2246 137.129 23.3203 137.141 20.8359V19.6582ZM152.732 28.2539H163.473V33H146.562V7.40625H152.732V28.2539Z" fill="#382A72"/>
<path d="M32.8107 65.6402L21.1834 58.8588C19.2199 57.7137 16.7802 57.7138 14.8166 58.8588L3.1894 65.6402C1.22207 66.7874 0 68.927 0 71.2239V84.776C0 87.0729 1.22207 89.2125 3.18932 90.3598L14.8166 97.1411C16.7805 98.2865 19.2201 98.2861 21.1834 97.1411L32.8106 90.3598C34.7779 89.2125 36 87.0729 36 84.776V71.2239C36 68.9271 34.7779 66.7875 32.8107 65.6402ZM32.9099 84.776C32.9099 85.9592 32.2804 87.0613 31.267 87.6522L19.6397 94.4335C18.6282 95.0235 17.3717 95.0235 16.3602 94.4335L4.73292 87.6522C3.71959 87.0612 3.09013 85.9592 3.09013 84.776V71.2239C3.09013 70.0409 3.71959 68.9388 4.733 68.3478L16.3602 61.5665C17.3718 60.9765 18.6287 60.9767 19.6398 61.5665L31.2671 68.3477C32.2804 68.9388 32.9099 70.0408 32.9099 71.2239V84.776Z" fill="#382A72"/>
<path d="M76.8107 65.6402L65.1834 58.8588C63.2199 57.7137 60.7802 57.7138 58.8166 58.8588L47.1894 65.6402C45.2221 66.7874 44 68.927 44 71.2239V84.776C44 87.0729 45.2221 89.2125 47.1893 90.3598L58.8166 97.1411C60.7805 98.2865 63.2201 98.2861 65.1834 97.1411L76.8106 90.3598C78.7779 89.2125 80 87.0729 80 84.776V71.2239C80 68.9271 78.7779 66.7875 76.8107 65.6402ZM76.9099 84.776C76.9099 85.9592 76.2804 87.0613 75.267 87.6522L63.6397 94.4335C62.6282 95.0235 61.3717 95.0235 60.3602 94.4335L48.7329 87.6522C47.7196 87.0612 47.0901 85.9592 47.0901 84.776V71.2239C47.0901 70.0409 47.7196 68.9388 48.733 68.3478L60.3602 61.5665C61.3718 60.9765 62.6287 60.9767 63.6398 61.5665L75.2671 68.3477C76.2804 68.9388 76.9099 70.0408 76.9099 71.2239V84.776Z" fill="#382A72"/>
<path d="M120.811 65.6402L109.183 58.8588C107.22 57.7137 104.78 57.7138 102.817 58.8588L91.1894 65.6402C89.2221 66.7874 88 68.927 88 71.2239V84.776C88 87.0729 89.2221 89.2125 91.1893 90.3598L102.817 97.1411C104.78 98.2865 107.22 98.2861 109.183 97.1411L120.811 90.3598C122.778 89.2125 124 87.0729 124 84.776V71.2239C124 68.9271 122.778 66.7875 120.811 65.6402ZM120.91 84.776C120.91 85.9592 120.28 87.0613 119.267 87.6522L107.64 94.4335C106.628 95.0235 105.372 95.0235 104.36 94.4335L92.7329 87.6522C91.7196 87.0612 91.0901 85.9592 91.0901 84.776V71.2239C91.0901 70.0409 91.7196 68.9388 92.733 68.3478L104.36 61.5665C105.372 60.9765 106.629 60.9767 107.64 61.5665L119.267 68.3477C120.28 68.9388 120.91 70.0408 120.91 71.2239V84.776Z" fill="#5A3084"/>
<path d="M164.811 65.6402L153.183 58.8588C151.22 57.7137 148.78 57.7138 146.817 58.8588L135.189 65.6402C133.222 66.7874 132 68.927 132 71.2239V84.776C132 87.0729 133.222 89.2125 135.189 90.3598L146.817 97.1411C148.78 98.2865 151.22 98.2861 153.183 97.1411L164.811 90.3598C166.778 89.2125 168 87.0729 168 84.776V71.2239C168 68.9271 166.778 66.7875 164.811 65.6402ZM164.91 84.776C164.91 85.9592 164.28 87.0613 163.267 87.6522L151.64 94.4335C150.628 95.0235 149.372 95.0235 148.36 94.4335L136.733 87.6522C135.72 87.0612 135.09 85.9592 135.09 84.776V71.2239C135.09 70.0409 135.72 68.9388 136.733 68.3478L148.36 61.5665C149.372 60.9765 150.629 60.9767 151.64 61.5665L163.267 68.3477C164.28 68.9388 164.91 70.0408 164.91 71.2239V84.776Z" fill="#5A3084"/>
<path d="M208.811 65.6402L197.183 58.8588C195.22 57.7137 192.78 57.7138 190.817 58.8588L179.189 65.6402C177.222 66.7874 176 68.927 176 71.2239V84.776C176 87.0729 177.222 89.2125 179.189 90.3598L190.817 97.1411C192.78 98.2865 195.22 98.2861 197.183 97.1411L208.811 90.3598C210.778 89.2125 212 87.0729 212 84.776V71.2239C212 68.9271 210.778 66.7875 208.811 65.6402ZM208.91 84.776C208.91 85.9592 208.28 87.0613 207.267 87.6522L195.64 94.4335C194.628 95.0235 193.372 95.0235 192.36 94.4335L180.733 87.6522C179.72 87.0612 179.09 85.9592 179.09 84.776V71.2239C179.09 70.0409 179.72 68.9388 180.733 68.3478L192.36 61.5665C193.372 60.9765 194.629 60.9767 195.64 61.5665L207.267 68.3477C208.28 68.9388 208.91 70.0408 208.91 71.2239V84.776Z" fill="#5A3084"/>
</svg>
