<svg width="212" height="98" viewBox="0 0 212 98" fill="none" xmlns="http://www.w3.org/2000/svg">
<path d="M40.1035 24.3164V33H33.9336V7.40625H44.1465C46.1035 7.40625 47.832 7.76953 49.332 8.49609C50.8438 9.21094 52.0098 10.2363 52.8301 11.5723C53.6621 12.8965 54.0781 14.4023 54.0781 16.0898C54.0781 18.5859 53.1816 20.584 51.3887 22.084C49.6074 23.5723 47.1582 24.3164 44.041 24.3164H40.1035ZM40.1035 19.5527H44.1465C45.3418 19.5527 46.25 19.2539 46.8711 18.6562C47.5039 18.0586 47.8203 17.2148 47.8203 16.125C47.8203 14.9297 47.498 13.9746 46.8535 13.2598C46.209 12.5449 45.3301 12.1816 44.2168 12.1699H40.1035V19.5527ZM56.1172 23.3145C56.1172 21.416 56.4863 19.7285 57.2246 18.252C57.9629 16.7637 59.0234 15.6211 60.4062 14.8242C61.7891 14.0273 63.4121 13.6289 65.2754 13.6289C68.123 13.6289 70.3672 14.5137 72.0078 16.2832C73.6484 18.041 74.4688 20.4375 74.4688 23.4727V23.6836C74.4688 26.6484 73.6426 29.0039 71.9902 30.75C70.3496 32.4844 68.123 33.3516 65.3105 33.3516C62.6035 33.3516 60.4297 32.543 58.7891 30.9258C57.1484 29.2969 56.2637 27.0938 56.1348 24.3164L56.1172 23.3145ZM62.041 23.6836C62.041 25.4414 62.3164 26.7305 62.8672 27.5508C63.418 28.3711 64.2324 28.7812 65.3105 28.7812C67.4199 28.7812 68.498 27.1582 68.5449 23.9121V23.3145C68.5449 19.9043 67.4551 18.1992 65.2754 18.1992C63.2949 18.1992 62.2227 19.6699 62.0586 22.6113L62.041 23.6836ZM87.0371 27.6562C87.0371 27.1523 86.7734 26.748 86.2461 26.4434C85.7188 26.1387 84.7168 25.8223 83.2402 25.4941C81.7637 25.166 80.5449 24.7383 79.584 24.2109C78.623 23.6719 77.8906 23.0215 77.3867 22.2598C76.8828 21.498 76.6309 20.625 76.6309 19.6406C76.6309 17.8945 77.3516 16.459 78.793 15.334C80.2344 14.1973 82.1211 13.6289 84.4531 13.6289C86.9609 13.6289 88.9766 14.1973 90.5 15.334C92.0234 16.4707 92.7852 17.9648 92.7852 19.8164H86.8438C86.8438 18.293 86.041 17.5312 84.4355 17.5312C83.8145 17.5312 83.293 17.707 82.8711 18.0586C82.4492 18.3984 82.2383 18.8262 82.2383 19.3418C82.2383 19.8691 82.4961 20.2969 83.0117 20.625C83.5273 20.9531 84.3477 21.2227 85.4727 21.4336C86.6094 21.6445 87.6055 21.8965 88.4609 22.1895C91.3203 23.1738 92.75 24.9375 92.75 27.4805C92.75 29.2148 91.9766 30.627 90.4297 31.7168C88.8945 32.8066 86.9023 33.3516 84.4531 33.3516C82.8242 33.3516 81.3711 33.0586 80.0938 32.4727C78.8164 31.8867 77.8203 31.0898 77.1055 30.082C76.3906 29.0742 76.0332 28.0137 76.0332 26.9004H81.5703C81.5938 27.7793 81.8867 28.4238 82.4492 28.834C83.0117 29.2324 83.7324 29.4316 84.6113 29.4316C85.4199 29.4316 86.0234 29.2676 86.4219 28.9395C86.832 28.6113 87.0371 28.1836 87.0371 27.6562ZM102.436 9.25195V13.9805H105.564V18.0938H102.436V26.7949C102.436 27.5098 102.564 28.0078 102.822 28.2891C103.08 28.5703 103.59 28.7109 104.352 28.7109C104.938 28.7109 105.43 28.6758 105.828 28.6055V32.8418C104.762 33.1816 103.648 33.3516 102.488 33.3516C100.449 33.3516 98.9434 32.8711 97.9707 31.9102C96.998 30.9492 96.5117 29.4902 96.5117 27.5332V18.0938H94.0859V13.9805H96.5117V9.25195H102.436ZM107.217 23.3496C107.217 21.4277 107.533 19.7285 108.166 18.252C108.799 16.7754 109.707 15.6387 110.891 14.8418C112.074 14.0332 113.451 13.6289 115.021 13.6289C117.002 13.6289 118.549 14.2969 119.662 15.6328L119.873 13.9805H125.252V32.2793C125.252 33.9551 124.859 35.4082 124.074 36.6387C123.301 37.8809 122.176 38.8301 120.699 39.4863C119.223 40.1543 117.512 40.4883 115.566 40.4883C114.172 40.4883 112.818 40.2246 111.506 39.6973C110.205 39.1699 109.209 38.4844 108.518 37.6406L110.996 34.1602C112.098 35.4609 113.551 36.1113 115.355 36.1113C117.98 36.1113 119.293 34.7637 119.293 32.0684V31.4707C118.156 32.7246 116.721 33.3516 114.986 33.3516C112.666 33.3516 110.791 32.4668 109.361 30.6973C107.932 28.916 107.217 26.5371 107.217 23.5605V23.3496ZM113.158 23.7188C113.158 25.2773 113.451 26.5137 114.037 27.4277C114.623 28.3301 115.443 28.7812 116.498 28.7812C117.775 28.7812 118.707 28.3535 119.293 27.498V19.5C118.719 18.6328 117.799 18.1992 116.533 18.1992C115.479 18.1992 114.652 18.6738 114.055 19.623C113.457 20.5605 113.158 21.9258 113.158 23.7188ZM140.123 19.3418L138.172 19.2012C136.309 19.2012 135.113 19.7871 134.586 20.959V33H128.662V13.9805H134.217L134.41 16.4238C135.406 14.5605 136.795 13.6289 138.576 13.6289C139.209 13.6289 139.76 13.6992 140.229 13.8398L140.123 19.3418ZM151.109 33.3516C148.191 33.3516 145.83 32.4844 144.025 30.75C142.221 29.0039 141.318 26.7363 141.318 23.9473V23.4551C141.318 21.5098 141.676 19.793 142.391 18.3047C143.117 16.8164 144.172 15.668 145.555 14.8594C146.938 14.0391 148.578 13.6289 150.477 13.6289C153.148 13.6289 155.258 14.4609 156.805 16.125C158.352 17.7773 159.125 20.0859 159.125 23.0508V25.3535H147.348C147.559 26.4199 148.021 27.2578 148.736 27.8672C149.451 28.4766 150.377 28.7812 151.514 28.7812C153.389 28.7812 154.854 28.125 155.908 26.8125L158.615 30.0117C157.877 31.0312 156.828 31.8457 155.469 32.4551C154.121 33.0527 152.668 33.3516 151.109 33.3516ZM150.441 18.1992C148.707 18.1992 147.676 19.3477 147.348 21.6445H153.324V21.1875C153.348 20.2383 153.107 19.5059 152.604 18.9902C152.1 18.4629 151.379 18.1992 150.441 18.1992ZM171.482 27.6562C171.482 27.1523 171.219 26.748 170.691 26.4434C170.164 26.1387 169.162 25.8223 167.686 25.4941C166.209 25.166 164.99 24.7383 164.029 24.2109C163.068 23.6719 162.336 23.0215 161.832 22.2598C161.328 21.498 161.076 20.625 161.076 19.6406C161.076 17.8945 161.797 16.459 163.238 15.334C164.68 14.1973 166.566 13.6289 168.898 13.6289C171.406 13.6289 173.422 14.1973 174.945 15.334C176.469 16.4707 177.23 17.9648 177.23 19.8164H171.289C171.289 18.293 170.486 17.5312 168.881 17.5312C168.26 17.5312 167.738 17.707 167.316 18.0586C166.895 18.3984 166.684 18.8262 166.684 19.3418C166.684 19.8691 166.941 20.2969 167.457 20.625C167.973 20.9531 168.793 21.2227 169.918 21.4336C171.055 21.6445 172.051 21.8965 172.906 22.1895C175.766 23.1738 177.195 24.9375 177.195 27.4805C177.195 29.2148 176.422 30.627 174.875 31.7168C173.34 32.8066 171.348 33.3516 168.898 33.3516C167.27 33.3516 165.816 33.0586 164.539 32.4727C163.262 31.8867 162.266 31.0898 161.551 30.082C160.836 29.0742 160.479 28.0137 160.479 26.9004H166.016C166.039 27.7793 166.332 28.4238 166.895 28.834C167.457 29.2324 168.178 29.4316 169.057 29.4316C169.865 29.4316 170.469 29.2676 170.867 28.9395C171.277 28.6113 171.482 28.1836 171.482 27.6562Z" fill="#382A72"/>
<path d="M32.8107 65.6402L21.1834 58.8588C19.2199 57.7137 16.7802 57.7138 14.8166 58.8588L3.1894 65.6402C1.22207 66.7874 0 68.927 0 71.2239V84.776C0 87.0729 1.22207 89.2125 3.18932 90.3598L14.8166 97.1411C16.7805 98.2865 19.2201 98.2861 21.1834 97.1411L32.8106 90.3598C34.7779 89.2125 36 87.0729 36 84.776V71.2239C36 68.9271 34.7779 66.7875 32.8107 65.6402ZM32.9099 84.776C32.9099 85.9592 32.2804 87.0613 31.267 87.6522L19.6397 94.4335C18.6282 95.0235 17.3717 95.0235 16.3602 94.4335L4.73292 87.6522C3.71959 87.0612 3.09013 85.9592 3.09013 84.776V71.2239C3.09013 70.0409 3.71959 68.9388 4.733 68.3478L16.3602 61.5665C17.3718 60.9765 18.6287 60.9767 19.6398 61.5665L31.2671 68.3477C32.2804 68.9388 32.9099 70.0408 32.9099 71.2239V84.776Z" fill="#382A72"/>
<path d="M76.8107 65.6402L65.1834 58.8588C63.2199 57.7137 60.7802 57.7138 58.8166 58.8588L47.1894 65.6402C45.2221 66.7874 44 68.927 44 71.2239V84.776C44 87.0729 45.2221 89.2125 47.1893 90.3598L58.8166 97.1411C60.7805 98.2865 63.2201 98.2861 65.1834 97.1411L76.8106 90.3598C78.7779 89.2125 80 87.0729 80 84.776V71.2239C80 68.9271 78.7779 66.7875 76.8107 65.6402ZM76.9099 84.776C76.9099 85.9592 76.2804 87.0613 75.267 87.6522L63.6397 94.4335C62.6282 95.0235 61.3717 95.0235 60.3602 94.4335L48.7329 87.6522C47.7196 87.0612 47.0901 85.9592 47.0901 84.776V71.2239C47.0901 70.0409 47.7196 68.9388 48.733 68.3478L60.3602 61.5665C61.3718 60.9765 62.6287 60.9767 63.6398 61.5665L75.2671 68.3477C76.2804 68.9388 76.9099 70.0408 76.9099 71.2239V84.776Z" fill="#5A3084"/>
<path d="M120.811 65.6402L109.183 58.8588C107.22 57.7137 104.78 57.7138 102.817 58.8588L91.1894 65.6402C89.2221 66.7874 88 68.927 88 71.2239V84.776C88 87.0729 89.2221 89.2125 91.1893 90.3598L102.817 97.1411C104.78 98.2865 107.22 98.2861 109.183 97.1411L120.811 90.3598C122.778 89.2125 124 87.0729 124 84.776V71.2239C124 68.9271 122.778 66.7875 120.811 65.6402ZM120.91 84.776C120.91 85.9592 120.28 87.0613 119.267 87.6522L107.64 94.4335C106.628 95.0235 105.372 95.0235 104.36 94.4335L92.7329 87.6522C91.7196 87.0612 91.0901 85.9592 91.0901 84.776V71.2239C91.0901 70.0409 91.7196 68.9388 92.733 68.3478L104.36 61.5665C105.372 60.9765 106.629 60.9767 107.64 61.5665L119.267 68.3477C120.28 68.9388 120.91 70.0408 120.91 71.2239V84.776Z" fill="#5A3084"/>
<path d="M164.811 65.6402L153.183 58.8588C151.22 57.7137 148.78 57.7138 146.817 58.8588L135.189 65.6402C133.222 66.7874 132 68.927 132 71.2239V84.776C132 87.0729 133.222 89.2125 135.189 90.3598L146.817 97.1411C148.78 98.2865 151.22 98.2861 153.183 97.1411L164.811 90.3598C166.778 89.2125 168 87.0729 168 84.776V71.2239C168 68.9271 166.778 66.7875 164.811 65.6402ZM164.91 84.776C164.91 85.9592 164.28 87.0613 163.267 87.6522L151.64 94.4335C150.628 95.0235 149.372 95.0235 148.36 94.4335L136.733 87.6522C135.72 87.0612 135.09 85.9592 135.09 84.776V71.2239C135.09 70.0409 135.72 68.9388 136.733 68.3478L148.36 61.5665C149.372 60.9765 150.629 60.9767 151.64 61.5665L163.267 68.3477C164.28 68.9388 164.91 70.0408 164.91 71.2239V84.776Z" fill="#5A3084"/>
<path d="M208.811 65.6402L197.183 58.8588C195.22 57.7137 192.78 57.7138 190.817 58.8588L179.189 65.6402C177.222 66.7874 176 68.927 176 71.2239V84.776C176 87.0729 177.222 89.2125 179.189 90.3598L190.817 97.1411C192.78 98.2865 195.22 98.2861 197.183 97.1411L208.811 90.3598C210.778 89.2125 212 87.0729 212 84.776V71.2239C212 68.9271 210.778 66.7875 208.811 65.6402ZM208.91 84.776C208.91 85.9592 208.28 87.0613 207.267 87.6522L195.64 94.4335C194.628 95.0235 193.372 95.0235 192.36 94.4335L180.733 87.6522C179.72 87.0612 179.09 85.9592 179.09 84.776V71.2239C179.09 70.0409 179.72 68.9388 180.733 68.3478L192.36 61.5665C193.372 60.9765 194.629 60.9767 195.64 61.5665L207.267 68.3477C208.28 68.9388 208.91 70.0408 208.91 71.2239V84.776Z" fill="#5A3084"/>
</svg>
