<svg width="212" height="98" viewBox="0 0 212 98" fill="none" xmlns="http://www.w3.org/2000/svg">
<path d="M56.1035 24.3164V33H49.9336V7.40625H60.1465C62.1035 7.40625 63.832 7.76953 65.332 8.49609C66.8438 9.21094 68.0098 10.2363 68.8301 11.5723C69.6621 12.8965 70.0781 14.4023 70.0781 16.0898C70.0781 18.5859 69.1816 20.584 67.3887 22.084C65.6074 23.5723 63.1582 24.3164 60.041 24.3164H56.1035ZM56.1035 19.5527H60.1465C61.3418 19.5527 62.25 19.2539 62.8711 18.6562C63.5039 18.0586 63.8203 17.2148 63.8203 16.125C63.8203 14.9297 63.498 13.9746 62.8535 13.2598C62.209 12.5449 61.3301 12.1816 60.2168 12.1699H56.1035V19.5527ZM80.9941 24.7031L84.1582 13.9805H90.5039L82.752 36.1816L82.418 36.9902C81.3164 39.4512 79.3711 40.6816 76.582 40.6816C75.8086 40.6816 74.9941 40.5645 74.1387 40.3301V36.0938H74.9121C75.7441 36.0938 76.377 35.9707 76.8105 35.7246C77.2559 35.4902 77.584 35.0625 77.7949 34.4414L78.2695 33.1758L71.6602 13.9805H77.9883L80.9941 24.7031ZM98.959 9.25195V13.9805H102.088V18.0938H98.959V26.7949C98.959 27.5098 99.0879 28.0078 99.3457 28.2891C99.6035 28.5703 100.113 28.7109 100.875 28.7109C101.461 28.7109 101.953 28.6758 102.352 28.6055V32.8418C101.285 33.1816 100.172 33.3516 99.0117 33.3516C96.9727 33.3516 95.4668 32.8711 94.4941 31.9102C93.5215 30.9492 93.0352 29.4902 93.0352 27.5332V18.0938H90.6094V13.9805H93.0352V9.25195H98.959ZM110.227 16.0195C111.492 14.4258 113.109 13.6289 115.078 13.6289C117.176 13.6289 118.758 14.25 119.824 15.4922C120.891 16.7344 121.436 18.5684 121.459 20.9941V33H115.518V21.1348C115.518 20.127 115.312 19.3887 114.902 18.9199C114.492 18.4395 113.795 18.1992 112.811 18.1992C111.592 18.1992 110.73 18.5859 110.227 19.3594V33H104.303V6H110.227V16.0195ZM124.008 23.3145C124.008 21.416 124.377 19.7285 125.115 18.252C125.854 16.7637 126.914 15.6211 128.297 14.8242C129.68 14.0273 131.303 13.6289 133.166 13.6289C136.014 13.6289 138.258 14.5137 139.898 16.2832C141.539 18.041 142.359 20.4375 142.359 23.4727V23.6836C142.359 26.6484 141.533 29.0039 139.881 30.75C138.24 32.4844 136.014 33.3516 133.201 33.3516C130.494 33.3516 128.32 32.543 126.68 30.9258C125.039 29.2969 124.154 27.0938 124.025 24.3164L124.008 23.3145ZM129.932 23.6836C129.932 25.4414 130.207 26.7305 130.758 27.5508C131.309 28.3711 132.123 28.7812 133.201 28.7812C135.311 28.7812 136.389 27.1582 136.436 23.9121V23.3145C136.436 19.9043 135.346 18.1992 133.166 18.1992C131.186 18.1992 130.113 19.6699 129.949 22.6113L129.932 23.6836ZM150.41 13.9805L150.604 16.2129C151.916 14.4902 153.727 13.6289 156.035 13.6289C158.016 13.6289 159.492 14.2207 160.465 15.4043C161.449 16.5879 161.959 18.3691 161.994 20.748V33H156.053V20.9941C156.053 20.0332 155.859 19.3301 155.473 18.8848C155.086 18.4277 154.383 18.1992 153.363 18.1992C152.203 18.1992 151.342 18.6562 150.779 19.5703V33H144.855V13.9805H150.41Z" fill="#382A72"/>
<path d="M32.8107 65.6402L21.1834 58.8588C19.2199 57.7137 16.7802 57.7138 14.8166 58.8588L3.1894 65.6402C1.22207 66.7874 0 68.927 0 71.2239V84.776C0 87.0729 1.22207 89.2125 3.18932 90.3598L14.8166 97.1411C16.7805 98.2865 19.2201 98.2861 21.1834 97.1411L32.8106 90.3598C34.7779 89.2125 36 87.0729 36 84.776V71.2239C36 68.9271 34.7779 66.7875 32.8107 65.6402ZM32.9099 84.776C32.9099 85.9592 32.2804 87.0613 31.267 87.6522L19.6397 94.4335C18.6282 95.0235 17.3717 95.0235 16.3602 94.4335L4.73292 87.6522C3.71959 87.0612 3.09013 85.9592 3.09013 84.776V71.2239C3.09013 70.0409 3.71959 68.9388 4.733 68.3478L16.3602 61.5665C17.3718 60.9765 18.6287 60.9767 19.6398 61.5665L31.2671 68.3477C32.2804 68.9388 32.9099 70.0408 32.9099 71.2239V84.776Z" fill="#382A72"/>
<path d="M76.8107 65.6402L65.1834 58.8588C63.2199 57.7137 60.7802 57.7138 58.8166 58.8588L47.1894 65.6402C45.2221 66.7874 44 68.927 44 71.2239V84.776C44 87.0729 45.2221 89.2125 47.1893 90.3598L58.8166 97.1411C60.7805 98.2865 63.2201 98.2861 65.1834 97.1411L76.8106 90.3598C78.7779 89.2125 80 87.0729 80 84.776V71.2239C80 68.9271 78.7779 66.7875 76.8107 65.6402ZM76.9099 84.776C76.9099 85.9592 76.2804 87.0613 75.267 87.6522L63.6397 94.4335C62.6282 95.0235 61.3717 95.0235 60.3602 94.4335L48.7329 87.6522C47.7196 87.0612 47.0901 85.9592 47.0901 84.776V71.2239C47.0901 70.0409 47.7196 68.9388 48.733 68.3478L60.3602 61.5665C61.3718 60.9765 62.6287 60.9767 63.6398 61.5665L75.2671 68.3477C76.2804 68.9388 76.9099 70.0408 76.9099 71.2239V84.776Z" fill="#5A3084"/>
<path d="M120.811 65.6402L109.183 58.8588C107.22 57.7137 104.78 57.7138 102.817 58.8588L91.1894 65.6402C89.2221 66.7874 88 68.927 88 71.2239V84.776C88 87.0729 89.2221 89.2125 91.1893 90.3598L102.817 97.1411C104.78 98.2865 107.22 98.2861 109.183 97.1411L120.811 90.3598C122.778 89.2125 124 87.0729 124 84.776V71.2239C124 68.9271 122.778 66.7875 120.811 65.6402ZM120.91 84.776C120.91 85.9592 120.28 87.0613 119.267 87.6522L107.64 94.4335C106.628 95.0235 105.372 95.0235 104.36 94.4335L92.7329 87.6522C91.7196 87.0612 91.0901 85.9592 91.0901 84.776V71.2239C91.0901 70.0409 91.7196 68.9388 92.733 68.3478L104.36 61.5665C105.372 60.9765 106.629 60.9767 107.64 61.5665L119.267 68.3477C120.28 68.9388 120.91 70.0408 120.91 71.2239V84.776Z" fill="#5A3084"/>
<path d="M164.811 65.6402L153.183 58.8588C151.22 57.7137 148.78 57.7138 146.817 58.8588L135.189 65.6402C133.222 66.7874 132 68.927 132 71.2239V84.776C132 87.0729 133.222 89.2125 135.189 90.3598L146.817 97.1411C148.78 98.2865 151.22 98.2861 153.183 97.1411L164.811 90.3598C166.778 89.2125 168 87.0729 168 84.776V71.2239C168 68.9271 166.778 66.7875 164.811 65.6402ZM164.91 84.776C164.91 85.9592 164.28 87.0613 163.267 87.6522L151.64 94.4335C150.628 95.0235 149.372 95.0235 148.36 94.4335L136.733 87.6522C135.72 87.0612 135.09 85.9592 135.09 84.776V71.2239C135.09 70.0409 135.72 68.9388 136.733 68.3478L148.36 61.5665C149.372 60.9765 150.629 60.9767 151.64 61.5665L163.267 68.3477C164.28 68.9388 164.91 70.0408 164.91 71.2239V84.776Z" fill="#5A3084"/>
<path d="M208.811 65.6402L197.183 58.8588C195.22 57.7137 192.78 57.7138 190.817 58.8588L179.189 65.6402C177.222 66.7874 176 68.927 176 71.2239V84.776C176 87.0729 177.222 89.2125 179.189 90.3598L190.817 97.1411C192.78 98.2865 195.22 98.2861 197.183 97.1411L208.811 90.3598C210.778 89.2125 212 87.0729 212 84.776V71.2239C212 68.9271 210.778 66.7875 208.811 65.6402ZM208.91 84.776C208.91 85.9592 208.28 87.0613 207.267 87.6522L195.64 94.4335C194.628 95.0235 193.372 95.0235 192.36 94.4335L180.733 87.6522C179.72 87.0612 179.09 85.9592 179.09 84.776V71.2239C179.09 70.0409 179.72 68.9388 180.733 68.3478L192.36 61.5665C193.372 60.9765 194.629 60.9767 195.64 61.5665L207.267 68.3477C208.28 68.9388 208.91 70.0408 208.91 71.2239V84.776Z" fill="#5A3084"/>
</svg>
