<svg width="212" height="98" viewBox="0 0 212 98" fill="none" xmlns="http://www.w3.org/2000/svg">
<path d="M70.4434 23.9648H67.1035V33H60.9336V7.40625H71.0059C74.041 7.40625 76.4141 8.08008 78.125 9.42773C79.8359 10.7754 80.6914 12.6797 80.6914 15.1406C80.6914 16.9219 80.3281 18.3984 79.6016 19.5703C78.8867 20.7422 77.7617 21.6914 76.2266 22.418L81.5703 32.7363V33H74.9609L70.4434 23.9648ZM67.1035 19.2012H71.0059C72.1777 19.2012 73.0566 18.8965 73.6426 18.2871C74.2402 17.666 74.5391 16.8047 74.5391 15.7031C74.5391 14.6016 74.2402 13.7402 73.6426 13.1191C73.0449 12.4863 72.166 12.1699 71.0059 12.1699H67.1035V19.2012ZM93.3477 33.3516C90.4297 33.3516 88.0684 32.4844 86.2637 30.75C84.459 29.0039 83.5566 26.7363 83.5566 23.9473V23.4551C83.5566 21.5098 83.9141 19.793 84.6289 18.3047C85.3555 16.8164 86.4102 15.668 87.793 14.8594C89.1758 14.0391 90.8164 13.6289 92.7148 13.6289C95.3867 13.6289 97.4961 14.4609 99.043 16.125C100.59 17.7773 101.363 20.0859 101.363 23.0508V25.3535H89.5859C89.7969 26.4199 90.2598 27.2578 90.9746 27.8672C91.6895 28.4766 92.6152 28.7812 93.752 28.7812C95.627 28.7812 97.0918 28.125 98.1465 26.8125L100.854 30.0117C100.115 31.0312 99.0664 31.8457 97.707 32.4551C96.3594 33.0527 94.9062 33.3516 93.3477 33.3516ZM92.6797 18.1992C90.9453 18.1992 89.9141 19.3477 89.5859 21.6445H95.5625V21.1875C95.5859 20.2383 95.3457 19.5059 94.8418 18.9902C94.3379 18.4629 93.6172 18.1992 92.6797 18.1992ZM114.477 33C114.266 32.6133 114.078 32.0449 113.914 31.2949C112.824 32.666 111.301 33.3516 109.344 33.3516C107.551 33.3516 106.027 32.8125 104.773 31.7344C103.52 30.6445 102.893 29.2793 102.893 27.6387C102.893 25.5762 103.654 24.0176 105.178 22.9629C106.701 21.9082 108.916 21.3809 111.822 21.3809H113.65V20.3789C113.65 18.6328 112.895 17.7598 111.383 17.7598C109.977 17.7598 109.273 18.4512 109.273 19.834H103.35C103.35 17.9941 104.129 16.5 105.688 15.3516C107.258 14.2031 109.256 13.6289 111.682 13.6289C114.107 13.6289 116.023 14.2207 117.43 15.4043C118.836 16.5879 119.557 18.2109 119.592 20.2734V28.6934C119.615 30.4395 119.885 31.7754 120.4 32.7012V33H114.477ZM110.768 29.1328C111.506 29.1328 112.115 28.9746 112.596 28.6582C113.088 28.3418 113.439 27.9844 113.65 27.5859V24.5449H111.928C109.865 24.5449 108.834 25.4707 108.834 27.3223C108.834 27.8613 109.016 28.3008 109.379 28.6406C109.742 28.9688 110.205 29.1328 110.768 29.1328ZM130.93 28.7812C131.762 28.7812 132.406 28.5586 132.863 28.1133C133.32 27.6562 133.543 27.0234 133.531 26.2148H139.086C139.086 28.3008 138.336 30.0117 136.836 31.3477C135.348 32.6836 133.426 33.3516 131.07 33.3516C128.305 33.3516 126.125 32.4844 124.531 30.75C122.938 29.0156 122.141 26.6133 122.141 23.543V23.2969C122.141 21.375 122.492 19.6816 123.195 18.2168C123.91 16.7402 124.936 15.6094 126.271 14.8242C127.607 14.0273 129.189 13.6289 131.018 13.6289C133.49 13.6289 135.453 14.3145 136.906 15.6855C138.359 17.0566 139.086 18.9141 139.086 21.2578H133.531C133.531 20.2734 133.291 19.5176 132.811 18.9902C132.33 18.4629 131.686 18.1992 130.877 18.1992C129.342 18.1992 128.445 19.1777 128.188 21.1348C128.105 21.7559 128.064 22.6113 128.064 23.7012C128.064 25.6113 128.293 26.9355 128.75 27.6738C129.207 28.4121 129.934 28.7812 130.93 28.7812ZM148.49 9.25195V13.9805H151.619V18.0938H148.49V26.7949C148.49 27.5098 148.619 28.0078 148.877 28.2891C149.135 28.5703 149.645 28.7109 150.406 28.7109C150.992 28.7109 151.484 28.6758 151.883 28.6055V32.8418C150.816 33.1816 149.703 33.3516 148.543 33.3516C146.504 33.3516 144.998 32.8711 144.025 31.9102C143.053 30.9492 142.566 29.4902 142.566 27.5332V18.0938H140.141V13.9805H142.566V9.25195H148.49Z" fill="#382A72"/>
<path d="M32.8107 65.6402L21.1834 58.8588C19.2199 57.7137 16.7802 57.7138 14.8166 58.8588L3.1894 65.6402C1.22207 66.7874 0 68.927 0 71.2239V84.776C0 87.0729 1.22207 89.2125 3.18932 90.3598L14.8166 97.1411C16.7805 98.2865 19.2201 98.2861 21.1834 97.1411L32.8106 90.3598C34.7779 89.2125 36 87.0729 36 84.776V71.2239C36 68.9271 34.7779 66.7875 32.8107 65.6402ZM32.9099 84.776C32.9099 85.9592 32.2804 87.0613 31.267 87.6522L19.6397 94.4335C18.6282 95.0235 17.3717 95.0235 16.3602 94.4335L4.73292 87.6522C3.71959 87.0612 3.09013 85.9592 3.09013 84.776V71.2239C3.09013 70.0409 3.71959 68.9388 4.733 68.3478L16.3602 61.5665C17.3718 60.9765 18.6287 60.9767 19.6398 61.5665L31.2671 68.3477C32.2804 68.9388 32.9099 70.0408 32.9099 71.2239V84.776Z" fill="#382A72"/>
<path d="M76.8107 65.6402L65.1834 58.8588C63.2199 57.7137 60.7802 57.7138 58.8166 58.8588L47.1894 65.6402C45.2221 66.7874 44 68.927 44 71.2239V84.776C44 87.0729 45.2221 89.2125 47.1893 90.3598L58.8166 97.1411C60.7805 98.2865 63.2201 98.2861 65.1834 97.1411L76.8106 90.3598C78.7779 89.2125 80 87.0729 80 84.776V71.2239C80 68.9271 78.7779 66.7875 76.8107 65.6402ZM76.9099 84.776C76.9099 85.9592 76.2804 87.0613 75.267 87.6522L63.6397 94.4335C62.6282 95.0235 61.3717 95.0235 60.3602 94.4335L48.7329 87.6522C47.7196 87.0612 47.0901 85.9592 47.0901 84.776V71.2239C47.0901 70.0409 47.7196 68.9388 48.733 68.3478L60.3602 61.5665C61.3718 60.9765 62.6287 60.9767 63.6398 61.5665L75.2671 68.3477C76.2804 68.9388 76.9099 70.0408 76.9099 71.2239V84.776Z" fill="#5A3084"/>
<path d="M120.811 65.6402L109.183 58.8588C107.22 57.7137 104.78 57.7138 102.817 58.8588L91.1894 65.6402C89.2221 66.7874 88 68.927 88 71.2239V84.776C88 87.0729 89.2221 89.2125 91.1893 90.3598L102.817 97.1411C104.78 98.2865 107.22 98.2861 109.183 97.1411L120.811 90.3598C122.778 89.2125 124 87.0729 124 84.776V71.2239C124 68.9271 122.778 66.7875 120.811 65.6402ZM120.91 84.776C120.91 85.9592 120.28 87.0613 119.267 87.6522L107.64 94.4335C106.628 95.0235 105.372 95.0235 104.36 94.4335L92.7329 87.6522C91.7196 87.0612 91.0901 85.9592 91.0901 84.776V71.2239C91.0901 70.0409 91.7196 68.9388 92.733 68.3478L104.36 61.5665C105.372 60.9765 106.629 60.9767 107.64 61.5665L119.267 68.3477C120.28 68.9388 120.91 70.0408 120.91 71.2239V84.776Z" fill="#5A3084"/>
<path d="M164.811 65.6402L153.183 58.8588C151.22 57.7137 148.78 57.7138 146.817 58.8588L135.189 65.6402C133.222 66.7874 132 68.927 132 71.2239V84.776C132 87.0729 133.222 89.2125 135.189 90.3598L146.817 97.1411C148.78 98.2865 151.22 98.2861 153.183 97.1411L164.811 90.3598C166.778 89.2125 168 87.0729 168 84.776V71.2239C168 68.9271 166.778 66.7875 164.811 65.6402ZM164.91 84.776C164.91 85.9592 164.28 87.0613 163.267 87.6522L151.64 94.4335C150.628 95.0235 149.372 95.0235 148.36 94.4335L136.733 87.6522C135.72 87.0612 135.09 85.9592 135.09 84.776V71.2239C135.09 70.0409 135.72 68.9388 136.733 68.3478L148.36 61.5665C149.372 60.9765 150.629 60.9767 151.64 61.5665L163.267 68.3477C164.28 68.9388 164.91 70.0408 164.91 71.2239V84.776Z" fill="#5A3084"/>
<path d="M208.811 65.6402L197.183 58.8588C195.22 57.7137 192.78 57.7138 190.817 58.8588L179.189 65.6402C177.222 66.7874 176 68.927 176 71.2239V84.776C176 87.0729 177.222 89.2125 179.189 90.3598L190.817 97.1411C192.78 98.2865 195.22 98.2861 197.183 97.1411L208.811 90.3598C210.778 89.2125 212 87.0729 212 84.776V71.2239C212 68.9271 210.778 66.7875 208.811 65.6402ZM208.91 84.776C208.91 85.9592 208.28 87.0613 207.267 87.6522L195.64 94.4335C194.628 95.0235 193.372 95.0235 192.36 94.4335L180.733 87.6522C179.72 87.0612 179.09 85.9592 179.09 84.776V71.2239C179.09 70.0409 179.72 68.9388 180.733 68.3478L192.36 61.5665C193.372 60.9765 194.629 60.9767 195.64 61.5665L207.267 68.3477C208.28 68.9388 208.91 70.0408 208.91 71.2239V84.776Z" fill="#5A3084"/>
</svg>
